NotoSans-CondensedBold.ufo
<glyph name="ampersand" format="2">
  <advance width="1184"/>
  <unicode hex="0026"/>
  <outline>
    <contour>
      <point x="508" y="1481" type="curve" smooth="yes"/>
      <point x="303" y="1481"/>
      <point x="170" y="1350"/>
      <point x="170" y="1151" type="curve" smooth="yes"/>
      <point x="170" y="1014"/>
      <point x="209" y="915"/>
      <point x="291" y="801" type="curve"/>
      <point x="127" y="698"/>
      <point x="51" y="567"/>
      <point x="51" y="391" type="curve" smooth="yes"/>
      <point x="51" y="145"/>
      <point x="176" y="-20"/>
      <point x="426" y="-20" type="curve" smooth="yes"/>
      <point x="578" y="-20"/>
      <point x="684" y="27"/>
      <point x="782" y="111" type="curve"/>
      <point x="854" y="0" type="line"/>
      <point x="1192" y="0" type="line"/>
      <point x="973" y="295" type="line"/>
      <point x="1059" y="436"/>
      <point x="1114" y="612"/>
      <point x="1135" y="772" type="curve"/>
      <point x="854" y="772" type="line"/>
      <point x="842" y="672"/>
      <point x="823" y="590"/>
      <point x="795" y="528" type="curve"/>
      <point x="631" y="770" type="line"/>
      <point x="762" y="874"/>
      <point x="836" y="995"/>
      <point x="836" y="1149" type="curve" smooth="yes"/>
      <point x="836" y="1356"/>
      <point x="719" y="1481"/>
    </contour>
    <contour>
      <point x="418" y="633" type="curve"/>
      <point x="637" y="309" type="line"/>
      <point x="588" y="250"/>
      <point x="539" y="219"/>
      <point x="469" y="219" type="curve" smooth="yes"/>
      <point x="379" y="219"/>
      <point x="326" y="301"/>
      <point x="326" y="408" type="curve" smooth="yes"/>
      <point x="326" y="506"/>
      <point x="352" y="573"/>
    </contour>
    <contour>
      <point x="506" y="1282" type="curve" smooth="yes"/>
      <point x="557" y="1282"/>
      <point x="590" y="1241"/>
      <point x="590" y="1159" type="curve" smooth="yes"/>
      <point x="590" y="1075"/>
      <point x="561" y="993"/>
      <point x="498" y="938" type="curve"/>
      <point x="449" y="1004"/>
      <point x="422" y="1085"/>
      <point x="422" y="1151" type="curve" smooth="yes"/>
      <point x="422" y="1239"/>
      <point x="457" y="1282"/>
    </contour>
  </outline>
</glyph>
<glyph name="parenright" format="2">
  <advance width="639"/>
  <unicode hex="0029"/>
  <outline>
    <contour>
      <point x="549" y="575" type="curve" smooth="yes"/>
      <point x="549" y="944"/>
      <point x="436" y="1260"/>
      <point x="266" y="1491" type="curve"/>
      <point x="27" y="1491" type="line"/>
      <point x="203" y="1225"/>
      <point x="289" y="924"/>
      <point x="289" y="578" type="curve" smooth="yes"/>
      <point x="289" y="244"/>
      <point x="195" y="-47"/>
      <point x="27" y="-324" type="curve"/>
      <point x="266" y="-324" type="line"/>
      <point x="440" y="-90"/>
      <point x="549" y="211"/>
    </contour>
  </outline>
</glyph>
<glyph name="plus" format="2">
  <advance width="969"/>
  <unicode hex="002B"/>
  <outline>
    <contour>
      <point x="596" y="831" type="line"/>
      <point x="596" y="1217" type="line"/>
      <point x="375" y="1217" type="line"/>
      <point x="375" y="831" type="line"/>
      <point x="68" y="831" type="line"/>
      <point x="68" y="614" type="line"/>
      <point x="375" y="614" type="line"/>
      <point x="375" y="233" type="line"/>
      <point x="596" y="233" type="line"/>
      <point x="596" y="614" type="line"/>
      <point x="901" y="614" type="line"/>
      <point x="901" y="831" type="line"/>
    </contour>
  </outline>
</glyph>
<glyph name="five" format="2">
  <advance width="961"/>
  <unicode hex="0035"/>
  <outline>
    <contour>
      <point x="516" y="936" type="curve" smooth="yes"/>
      <point x="477" y="936"/>
      <point x="430" y="932"/>
      <point x="371" y="918" type="curve"/>
      <point x="391" y="1219" type="line"/>
      <point x="795" y="1219" type="line"/>
      <point x="795" y="1462" type="line"/>
      <point x="160" y="1462" type="line"/>
      <point x="117" y="737" type="line"/>
      <point x="209" y="668" type="line"/>
      <point x="268" y="690"/>
      <point x="326" y="702"/>
      <point x="379" y="702" type="curve" smooth="yes"/>
      <point x="518" y="702"/>
      <point x="590" y="621"/>
      <point x="590" y="471" type="curve" smooth="yes"/>
      <point x="590" y="319"/>
      <point x="520" y="217"/>
      <point x="383" y="217" type="curve" smooth="yes"/>
      <point x="291" y="217"/>
      <point x="186" y="254"/>
      <point x="100" y="305" type="curve"/>
      <point x="100" y="49" type="line"/>
      <point x="182" y="2"/>
      <point x="281" y="-20"/>
      <point x="401" y="-20" type="curve" smooth="yes"/>
      <point x="715" y="-20"/>
      <point x="870" y="166"/>
      <point x="870" y="481" type="curve" smooth="yes"/>
      <point x="870" y="750"/>
      <point x="727" y="936"/>
    </contour>
  </outline>
</glyph>
<glyph name="eight" format="2">
  <advance width="961"/>
  <unicode hex="0038"/>
  <outline>
    <contour>
      <point x="481" y="1483" type="curve" smooth="yes"/>
      <point x="246" y="1483"/>
      <point x="100" y="1352"/>
      <point x="100" y="1133" type="curve" smooth="yes"/>
      <point x="100" y="989"/>
      <point x="160" y="868"/>
      <point x="291" y="764" type="curve"/>
      <point x="133" y="664"/>
      <point x="63" y="537"/>
      <point x="63" y="375" type="curve" smooth="yes"/>
      <point x="63" y="127"/>
      <point x="213" y="-20"/>
      <point x="481" y="-20" type="curve" smooth="yes"/>
      <point x="737" y="-20"/>
      <point x="895" y="133"/>
      <point x="895" y="381" type="curve" smooth="yes"/>
      <point x="895" y="539"/>
      <point x="817" y="651"/>
      <point x="649" y="768" type="curve"/>
      <point x="795" y="856"/>
      <point x="860" y="975"/>
      <point x="860" y="1133" type="curve" smooth="yes"/>
      <point x="860" y="1352"/>
      <point x="723" y="1483"/>
    </contour>
    <contour>
      <point x="328" y="379" type="curve" smooth="yes"/>
      <point x="328" y="481"/>
      <point x="367" y="555"/>
      <point x="471" y="631" type="curve"/>
      <point x="500" y="608" type="line" smooth="yes"/>
      <point x="602" y="528"/>
      <point x="633" y="457"/>
      <point x="633" y="379" type="curve" smooth="yes"/>
      <point x="633" y="268"/>
      <point x="582" y="201"/>
      <point x="477" y="201" type="curve" smooth="yes"/>
      <point x="379" y="201"/>
      <point x="328" y="272"/>
    </contour>
    <contour>
      <point x="481" y="1262" type="curve" smooth="yes"/>
      <point x="553" y="1262"/>
      <point x="602" y="1204"/>
      <point x="602" y="1112" type="curve" smooth="yes"/>
      <point x="602" y="1030"/>
      <point x="571" y="971"/>
      <point x="479" y="903" type="curve"/>
      <point x="401" y="963"/>
      <point x="362" y="1026"/>
      <point x="362" y="1112" type="curve" smooth="yes"/>
      <point x="362" y="1204"/>
      <point x="410" y="1262"/>
    </contour>
  </outline>
</glyph>
<glyph name="semicolon" format="2">
  <advance width="532"/>
  <unicode hex="003B"/>
  <outline>
    <contour>
      <point x="414" y="272" type="line"/>
      <point x="147" y="272" type="line"/>
      <point x="135" y="119"/>
      <point x="102" y="-115"/>
      <point x="66" y="-279" type="curve"/>
      <point x="285" y="-279" type="line"/>
      <point x="344" y="-129"/>
      <point x="391" y="45"/>
      <point x="426" y="250" type="curve"/>
    </contour>
    <contour>
      <point x="109" y="963" type="curve" smooth="yes"/>
      <point x="109" y="856"/>
      <point x="168" y="795"/>
      <point x="268" y="795" type="curve" smooth="yes"/>
      <point x="362" y="795"/>
      <point x="422" y="854"/>
      <point x="422" y="963" type="curve" smooth="yes"/>
      <point x="422" y="1071"/>
      <point x="369" y="1133"/>
      <point x="268" y="1133" type="curve" smooth="yes"/>
      <point x="164" y="1133"/>
      <point x="109" y="1071"/>
    </contour>
  </outline>
</glyph>
<glyph name="question" format="2">
  <advance width="756"/>
  <unicode hex="003F"/>
  <outline>
    <contour>
      <point x="213" y="475" type="line"/>
      <point x="434" y="475" type="line"/>
      <point x="434" y="522" type="line" smooth="yes"/>
      <point x="434" y="602"/>
      <point x="446" y="641"/>
      <point x="541" y="737" type="curve" smooth="yes"/>
      <point x="662" y="860"/>
      <point x="723" y="954"/>
      <point x="723" y="1130" type="curve" smooth="yes"/>
      <point x="723" y="1350"/>
      <point x="594" y="1483"/>
      <point x="352" y="1483" type="curve" smooth="yes"/>
      <point x="236" y="1483"/>
      <point x="123" y="1442"/>
      <point x="10" y="1360" type="curve"/>
      <point x="100" y="1151" type="line"/>
      <point x="184" y="1210"/>
      <point x="256" y="1243"/>
      <point x="330" y="1243" type="curve" smooth="yes"/>
      <point x="416" y="1243"/>
      <point x="461" y="1196"/>
      <point x="461" y="1106" type="curve" smooth="yes"/>
      <point x="461" y="1014"/>
      <point x="428" y="958"/>
      <point x="340" y="864" type="curve" smooth="yes"/>
      <point x="248" y="766"/>
      <point x="213" y="686"/>
      <point x="213" y="551" type="curve" smooth="yes"/>
    </contour>
    <contour>
      <point x="166" y="145" type="curve" smooth="yes"/>
      <point x="166" y="37"/>
      <point x="227" y="-23"/>
      <point x="326" y="-23" type="curve" smooth="yes"/>
      <point x="422" y="-23"/>
      <point x="481" y="37"/>
      <point x="481" y="145" type="curve" smooth="yes"/>
      <point x="481" y="256"/>
      <point x="424" y="313"/>
      <point x="326" y="313" type="curve" smooth="yes"/>
      <point x="221" y="313"/>
      <point x="166" y="254"/>
    </contour>
  </outline>
</glyph>
<glyph name="J" format="2">
  <advance width="541"/>
  <unicode hex="004A"/>
  <anchor x="41" y="-393" name="bottom"/>
  <anchor x="272" y="1462" name="top"/>
  <anchor x="500" y="1462" name="topright"/>
  <outline>
    <contour>
      <point x="41" y="-434" type="curve" smooth="yes"/>
      <point x="279" y="-434"/>
      <point x="412" y="-313"/>
      <point x="412" y="68" type="curve" smooth="yes"/>
      <point x="412" y="1462" type="line"/>
      <point x="133" y="1462" type="line"/>
      <point x="133" y="63" type="line" smooth="yes"/>
      <point x="133" y="-131"/>
      <point x="98" y="-193"/>
      <point x="-2" y="-193" type="curve" smooth="yes"/>
      <point x="-45" y="-193"/>
      <point x="-82" y="-184"/>
      <point x="-115" y="-172" type="curve"/>
      <point x="-115" y="-412" type="line"/>
      <point x="-68" y="-428"/>
      <point x="-14" y="-434"/>
    </contour>
  </outline>
</glyph>
<glyph name="R" format="2">
  <advance width="1049"/>
  <unicode hex="0052"/>
  <anchor x="547" y="0" name="bottom"/>
  <anchor x="537" y="1462" name="top"/>
  <anchor x="1008" y="1462" name="topright"/>
  <outline>
    <contour>
      <point x="471" y="1462" type="curve" smooth="yes"/>
      <point x="131" y="1462" type="line"/>
      <point x="131" y="0" type="line"/>
      <point x="412" y="0" type="line"/>
      <point x="412" y="573" type="line"/>
      <point x="496" y="573" type="line"/>
      <point x="735" y="0" type="line"/>
      <point x="1044" y="0" type="line"/>
      <point x="743" y="643" type="line"/>
      <point x="887" y="729"/>
      <point x="952" y="858"/>
      <point x="952" y="1038" type="curve" smooth="yes"/>
      <point x="952" y="1321"/>
      <point x="795" y="1462"/>
    </contour>
    <contour>
      <point x="469" y="1225" type="line" smooth="yes"/>
      <point x="602" y="1225"/>
      <point x="666" y="1161"/>
      <point x="666" y="1024" type="curve" smooth="yes"/>
      <point x="666" y="870"/>
      <point x="600" y="795"/>
      <point x="475" y="795" type="curve" smooth="yes"/>
      <point x="412" y="795" type="line"/>
      <point x="412" y="1225" type="line"/>
    </contour>
  </outline>
</glyph>
<glyph name="S" format="2">
  <advance width="897"/>
  <unicode hex="0053"/>
  <anchor x="422" y="0" name="bottom"/>
  <anchor x="475" y="1462" name="top"/>
  <anchor x="856" y="1462" name="topright"/>
  <outline>
    <contour>
      <point x="836" y="428" type="curve" smooth="yes"/>
      <point x="836" y="621"/>
      <point x="743" y="737"/>
      <point x="561" y="844" type="curve"/>
      <point x="393" y="940"/>
      <point x="356" y="981"/>
      <point x="356" y="1085" type="curve" smooth="yes"/>
      <point x="356" y="1167"/>
      <point x="406" y="1227"/>
      <point x="502" y="1227" type="curve" smooth="yes"/>
      <point x="575" y="1227"/>
      <point x="659" y="1200"/>
      <point x="754" y="1143" type="curve"/>
      <point x="831" y="1391" type="line"/>
      <point x="725" y="1450"/>
      <point x="610" y="1483"/>
      <point x="492" y="1483" type="curve"/>
      <point x="229" y="1485"/>
      <point x="74" y="1319"/>
      <point x="76" y="1071" type="curve"/>
      <point x="76" y="840"/>
      <point x="182" y="743"/>
      <point x="354" y="641" type="curve" smooth="yes"/>
      <point x="518" y="545"/>
      <point x="551" y="494"/>
      <point x="551" y="399" type="curve" smooth="yes"/>
      <point x="551" y="309"/>
      <point x="498" y="240"/>
      <point x="391" y="240" type="curve" smooth="yes"/>
      <point x="293" y="240"/>
      <point x="172" y="276"/>
      <point x="66" y="346" type="curve"/>
      <point x="66" y="59" type="line"/>
      <point x="176" y="0"/>
      <point x="283" y="-20"/>
      <point x="406" y="-20" type="curve" smooth="yes"/>
      <point x="668" y="-20"/>
      <point x="836" y="164"/>
    </contour>
  </outline>
</glyph>
<glyph name="W" format="2">
  <advance width="1587"/>
  <unicode hex="0057"/>
  <anchor x="793" y="0" name="bottom"/>
  <anchor x="793" y="1462" name="top"/>
  <anchor x="1546" y="1462" name="topright"/>
  <outline>
    <contour>
      <point x="1583" y="1462" type="line"/>
      <point x="1303" y="1462" type="line"/>
      <point x="1167" y="723" type="line" smooth="yes"/>
      <point x="1145" y="598"/>
      <point x="1122" y="446"/>
      <point x="1112" y="326" type="curve"/>
      <point x="1096" y="461"/>
      <point x="1073" y="614"/>
      <point x="1051" y="721" type="curve" smooth="yes"/>
      <point x="911" y="1462" type="line"/>
      <point x="676" y="1462" type="line"/>
      <point x="526" y="719" type="line" smooth="yes"/>
      <point x="508" y="621"/>
      <point x="481" y="463"/>
      <point x="465" y="326" type="curve"/>
      <point x="453" y="444"/>
      <point x="430" y="606"/>
      <point x="410" y="723" type="curve" smooth="yes"/>
      <point x="276" y="1462" type="line"/>
      <point x="2" y="1462" type="line"/>
      <point x="291" y="0" type="line"/>
      <point x="610" y="0" type="line"/>
      <point x="745" y="698" type="line" smooth="yes"/>
      <point x="766" y="809"/>
      <point x="782" y="950"/>
      <point x="793" y="1053" type="curve"/>
      <point x="805" y="915"/>
      <point x="823" y="793"/>
      <point x="840" y="696" type="curve" smooth="yes"/>
      <point x="975" y="0" type="line"/>
      <point x="1296" y="0" type="line"/>
    </contour>
  </outline>
</glyph>
<glyph name="X" format="2">
  <advance width="969"/>
  <unicode hex="0058"/>
  <anchor x="485" y="0" name="bottom"/>
  <anchor x="481" y="1462" name="top"/>
  <anchor x="928" y="1462" name="topright"/>
  <outline>
    <contour>
      <point x="967" y="0" type="line"/>
      <point x="639" y="745" type="line"/>
      <point x="932" y="1462" type="line"/>
      <point x="637" y="1462" type="line"/>
      <point x="479" y="1001" type="line"/>
      <point x="319" y="1462" type="line"/>
      <point x="29" y="1462" type="line"/>
      <point x="326" y="743" type="line"/>
      <point x="2" y="0" type="line"/>
      <point x="295" y="0" type="line"/>
      <point x="485" y="489" type="line"/>
      <point x="666" y="0" type="line"/>
    </contour>
  </outline>
</glyph>
<glyph name="d" format="2">
  <advance width="1024"/>
  <unicode hex="0064"/>
  <anchor x="504" y="0" name="bottom"/>
  <anchor x="512" y="561" name="center"/>
  <anchor x="389" y="1556" name="top"/>
  <anchor x="954" y="1556" name="topright"/>
  <outline>
    <contour>
      <point x="406" y="-20" type="curve" smooth="yes"/>
      <point x="514" y="-20"/>
      <point x="578" y="23"/>
      <point x="643" y="123" type="curve"/>
      <point x="659" y="123" type="line"/>
      <point x="696" y="0" type="line"/>
      <point x="909" y="0" type="line"/>
      <point x="909" y="1556" type="line"/>
      <point x="643" y="1556" type="line"/>
      <point x="643" y="1167" type="line" smooth="yes"/>
      <point x="643" y="1124"/>
      <point x="647" y="1063"/>
      <point x="651" y="977" type="curve"/>
      <point x="641" y="977" type="line"/>
      <point x="584" y="1087"/>
      <point x="500" y="1141"/>
      <point x="397" y="1141" type="curve" smooth="yes"/>
      <point x="193" y="1141"/>
      <point x="74" y="926"/>
      <point x="74" y="561" type="curve" smooth="yes"/>
      <point x="74" y="197"/>
      <point x="190" y="-20"/>
    </contour>
    <contour>
      <point x="485" y="203" type="curve" smooth="yes"/>
      <point x="393" y="203"/>
      <point x="344" y="322"/>
      <point x="344" y="563" type="curve" smooth="yes"/>
      <point x="344" y="791"/>
      <point x="389" y="909"/>
      <point x="485" y="909" type="curve" smooth="yes"/>
      <point x="596" y="909"/>
      <point x="643" y="811"/>
      <point x="643" y="590" type="curve" smooth="yes"/>
      <point x="643" y="526" type="line" smooth="yes"/>
      <point x="643" y="303"/>
      <point x="592" y="203"/>
    </contour>
  </outline>
</glyph>
<glyph name="h" format="2">
  <advance width="1026"/>
  <unicode hex="0068"/>
  <anchor x="518" y="0" name="bottom"/>
  <anchor x="514" y="561" name="center"/>
  <anchor x="248" y="1556" name="top"/>
  <anchor x="922" y="1556" name="topright"/>
  <outline>
    <contour>
      <point x="381" y="1556" type="line"/>
      <point x="115" y="1556" type="line"/>
      <point x="115" y="0" type="line"/>
      <point x="381" y="0" type="line"/>
      <point x="381" y="539" type="line" smooth="yes"/>
      <point x="381" y="788"/>
      <point x="418" y="901"/>
      <point x="539" y="901" type="curve" smooth="yes"/>
      <point x="614" y="901"/>
      <point x="647" y="827"/>
      <point x="647" y="664" type="curve" smooth="yes"/>
      <point x="647" y="0" type="line"/>
      <point x="913" y="0" type="line"/>
      <point x="913" y="739" type="line" smooth="yes"/>
      <point x="913" y="997"/>
      <point x="811" y="1141"/>
      <point x="618" y="1141" type="curve" smooth="yes"/>
      <point x="506" y="1141"/>
      <point x="420" y="1083"/>
      <point x="377" y="977" type="curve"/>
      <point x="360" y="977" type="line"/>
      <point x="375" y="1051"/>
      <point x="381" y="1130"/>
      <point x="381" y="1210" type="curve" smooth="yes"/>
    </contour>
  </outline>
</glyph>
<glyph name="u" format="2">
  <advance width="1026"/>
  <unicode hex="0075"/>
  <anchor x="502" y="0" name="bottom"/>
  <anchor x="514" y="1120" name="top"/>
  <anchor x="956" y="1120" name="topright"/>
  <outline>
    <contour>
      <point x="911" y="1120" type="line"/>
      <point x="645" y="1120" type="line"/>
      <point x="645" y="551" type="line" smooth="yes"/>
      <point x="645" y="338"/>
      <point x="618" y="217"/>
      <point x="485" y="217" type="curve" smooth="yes"/>
      <point x="410" y="217"/>
      <point x="379" y="301"/>
      <point x="379" y="469" type="curve" smooth="yes"/>
      <point x="379" y="1120" type="line"/>
      <point x="113" y="1120" type="line"/>
      <point x="113" y="389" type="line" smooth="yes"/>
      <point x="113" y="133"/>
      <point x="211" y="-20"/>
      <point x="410" y="-20" type="curve" smooth="yes"/>
      <point x="524" y="-20"/>
      <point x="606" y="35"/>
      <point x="657" y="143" type="curve"/>
      <point x="672" y="143" type="line"/>
      <point x="702" y="0" type="line"/>
      <point x="911" y="0" type="line"/>
    </contour>
  </outline>
</glyph>
<glyph name="z" format="2">
  <advance width="739"/>
  <unicode hex="007A"/>
  <anchor x="375" y="0" name="bottom"/>
  <anchor x="381" y="1120" name="top"/>
  <anchor x="698" y="1120" name="topright"/>
  <outline>
    <contour>
      <point x="700" y="0" type="line"/>
      <point x="700" y="223" type="line"/>
      <point x="350" y="223" type="line"/>
      <point x="684" y="940" type="line"/>
      <point x="684" y="1120" type="line"/>
      <point x="61" y="1120" type="line"/>
      <point x="61" y="895" type="line"/>
      <point x="389" y="895" type="line"/>
      <point x="41" y="166" type="line"/>
      <point x="41" y="0" type="line"/>
    </contour>
  </outline>
</glyph>
<glyph name="braceleft" format="2">
  <advance width="748"/>
  <unicode hex="007B"/>
  <outline>
    <contour>
      <point x="690" y="-338" type="curve"/>
      <point x="690" y="-125" type="line"/>
      <point x="555" y="-121"/>
      <point x="510" y="-82"/>
      <point x="510" y="18" type="curve" smooth="yes"/>
      <point x="510" y="315" type="line" smooth="yes"/>
      <point x="510" y="459"/>
      <point x="459" y="539"/>
      <point x="324" y="563" type="curve"/>
      <point x="324" y="575" type="line"/>
      <point x="457" y="598"/>
      <point x="510" y="676"/>
      <point x="510" y="829" type="curve" smooth="yes"/>
      <point x="510" y="1122" type="line" smooth="yes"/>
      <point x="510" y="1235"/>
      <point x="573" y="1260"/>
      <point x="690" y="1264" type="curve"/>
      <point x="690" y="1477" type="line"/>
      <point x="352" y="1475"/>
      <point x="256" y="1378"/>
      <point x="256" y="1143" type="curve" smooth="yes"/>
      <point x="256" y="856" type="line" smooth="yes"/>
      <point x="256" y="731"/>
      <point x="193" y="674"/>
      <point x="49" y="674" type="curve"/>
      <point x="49" y="463" type="line"/>
      <point x="197" y="463"/>
      <point x="256" y="399"/>
      <point x="256" y="281" type="curve" smooth="yes"/>
      <point x="256" y="-2" type="line" smooth="yes"/>
      <point x="256" y="-260"/>
      <point x="375" y="-338"/>
    </contour>
  </outline>
</glyph>
<glyph name="asciitilde" format="2">
  <advance width="969"/>
  <unicode hex="007E"/>
  <outline>
    <contour>
      <point x="455" y="616" type="curve" smooth="yes"/>
      <point x="537" y="578"/>
      <point x="604" y="555"/>
      <point x="688" y="555" type="curve" smooth="yes"/>
      <point x="776" y="555"/>
      <point x="850" y="590"/>
      <point x="909" y="659" type="curve"/>
      <point x="909" y="893" type="line"/>
      <point x="848" y="819"/>
      <point x="770" y="772"/>
      <point x="709" y="772" type="curve" smooth="yes"/>
      <point x="649" y="772"/>
      <point x="588" y="791"/>
      <point x="512" y="827" type="curve" smooth="yes"/>
      <point x="434" y="864"/>
      <point x="362" y="891"/>
      <point x="281" y="891" type="curve" smooth="yes"/>
      <point x="190" y="891"/>
      <point x="117" y="854"/>
      <point x="57" y="784" type="curve"/>
      <point x="57" y="551" type="line"/>
      <point x="127" y="629"/>
      <point x="197" y="672"/>
      <point x="258" y="672" type="curve" smooth="yes"/>
      <point x="317" y="672"/>
      <point x="383" y="653"/>
    </contour>
  </outline>
</glyph>
<glyph name="dieresis" format="2">
  <advance width="993"/>
  <unicode hex="00A8"/>
  <outline>
    <contour>
      <point x="186" y="1395" type="curve" smooth="yes"/>
      <point x="186" y="1307"/>
      <point x="236" y="1260"/>
      <point x="309" y="1260" type="curve" smooth="yes"/>
      <point x="385" y="1260"/>
      <point x="434" y="1311"/>
      <point x="434" y="1395" type="curve" smooth="yes"/>
      <point x="434" y="1481"/>
      <point x="385" y="1532"/>
      <point x="309" y="1532" type="curve" smooth="yes"/>
      <point x="236" y="1532"/>
      <point x="186" y="1485"/>
    </contour>
    <contour>
      <point x="557" y="1395" type="curve" smooth="yes"/>
      <point x="557" y="1309"/>
      <point x="606" y="1260"/>
      <point x="682" y="1260" type="curve" smooth="yes"/>
      <point x="758" y="1260"/>
      <point x="807" y="1311"/>
      <point x="807" y="1395" type="curve" smooth="yes"/>
      <point x="807" y="1481"/>
      <point x="758" y="1532"/>
      <point x="682" y="1532" type="curve" smooth="yes"/>
      <point x="606" y="1532"/>
      <point x="557" y="1485"/>
    </contour>
  </outline>
</glyph>
<glyph name="ordfeminine" format="2">
  <advance width="678"/>
  <unicode hex="00AA"/>
  <anchor x="311" y="756" name="bottom"/>
  <anchor x="332" y="1485" name="top"/>
  <outline>
    <contour>
      <point x="354" y="1479" type="curve" smooth="yes"/>
      <point x="252" y="1479"/>
      <point x="170" y="1454"/>
      <point x="88" y="1409" type="curve"/>
      <point x="143" y="1270" type="line"/>
      <point x="203" y="1303"/>
      <point x="254" y="1325"/>
      <point x="315" y="1325" type="curve" smooth="yes"/>
      <point x="379" y="1325"/>
      <point x="401" y="1294"/>
      <point x="401" y="1229" type="curve" smooth="yes"/>
      <point x="401" y="1204" type="line"/>
      <point x="328" y="1198" type="line" smooth="yes"/>
      <point x="160" y="1184"/>
      <point x="45" y="1139"/>
      <point x="45" y="973" type="curve" smooth="yes"/>
      <point x="45" y="854"/>
      <point x="111" y="750"/>
      <point x="227" y="750" type="curve" smooth="yes"/>
      <point x="324" y="750"/>
      <point x="385" y="797"/>
      <point x="424" y="872" type="curve"/>
      <point x="457" y="762" type="line"/>
      <point x="590" y="762" type="line"/>
      <point x="590" y="1212" type="line"/>
      <point x="590" y="1386"/>
      <point x="506" y="1479"/>
    </contour>
    <contour>
      <point x="401" y="1087" type="line"/>
      <point x="401" y="1053" type="line" smooth="yes"/>
      <point x="401" y="963"/>
      <point x="365" y="901"/>
      <point x="305" y="901" type="curve" smooth="yes"/>
      <point x="260" y="901"/>
      <point x="236" y="930"/>
      <point x="236" y="981" type="curve" smooth="yes"/>
      <point x="236" y="1044"/>
      <point x="270" y="1073"/>
      <point x="344" y="1081" type="curve" smooth="yes"/>
    </contour>
  </outline>
</glyph>
<glyph name="guillemotright" format="2">
  <advance width="1067"/>
  <unicode hex="00BB"/>
  <outline>
    <contour>
      <point x="1012" y="547" type="line"/>
      <point x="1012" y="575" type="line"/>
      <point x="702" y="1020" type="line"/>
      <point x="512" y="920" type="line"/>
      <point x="723" y="561" type="line"/>
      <point x="512" y="205" type="line"/>
      <point x="702" y="102" type="line"/>
    </contour>
    <contour>
      <point x="563" y="547" type="line"/>
      <point x="563" y="575" type="line"/>
      <point x="254" y="1020" type="line"/>
      <point x="63" y="920" type="line"/>
      <point x="272" y="561" type="line"/>
      <point x="63" y="205" type="line"/>
      <point x="254" y="102" type="line"/>
    </contour>
  </outline>
</glyph>
<glyph name="threequarters" format="2">
  <advance width="1645"/>
  <unicode hex="00BE"/>
  <outline>
    <contour>
      <point x="375" y="0" type="line"/>
      <point x="588" y="0" type="line"/>
      <point x="1313" y="1462" type="line"/>
      <point x="1098" y="1462" type="line"/>
    </contour>
    <contour>
      <point x="297" y="569" type="curve" smooth="yes"/>
      <point x="477" y="569"/>
      <point x="606" y="666"/>
      <point x="606" y="821" type="curve" smooth="yes"/>
      <point x="606" y="938"/>
      <point x="551" y="1008"/>
      <point x="449" y="1040" type="curve"/>
      <point x="449" y="1049" type="line"/>
      <point x="537" y="1087"/>
      <point x="584" y="1161"/>
      <point x="584" y="1264" type="curve" smooth="yes"/>
      <point x="584" y="1401"/>
      <point x="475" y="1483"/>
      <point x="317" y="1483" type="curve" smooth="yes"/>
      <point x="221" y="1483"/>
      <point x="131" y="1444"/>
      <point x="53" y="1370" type="curve"/>
      <point x="139" y="1239" type="line"/>
      <point x="195" y="1290"/>
      <point x="242" y="1313"/>
      <point x="299" y="1313" type="curve" smooth="yes"/>
      <point x="367" y="1313"/>
      <point x="395" y="1276"/>
      <point x="395" y="1219" type="curve" smooth="yes"/>
      <point x="395" y="1149"/>
      <point x="350" y="1110"/>
      <point x="260" y="1110" type="curve" smooth="yes"/>
      <point x="190" y="1110" type="line"/>
      <point x="190" y="954" type="line"/>
      <point x="272" y="954" type="line" smooth="yes"/>
      <point x="369" y="954"/>
      <point x="414" y="918"/>
      <point x="414" y="840" type="curve" smooth="yes"/>
      <point x="414" y="780"/>
      <point x="375" y="745"/>
      <point x="295" y="745" type="curve" smooth="yes"/>
      <point x="205" y="745"/>
      <point x="127" y="772"/>
      <point x="63" y="819" type="curve"/>
      <point x="63" y="631" type="line"/>
      <point x="129" y="590"/>
      <point x="207" y="569"/>
    </contour>
    <contour>
      <point x="1315" y="0" type="line"/>
      <point x="1509" y="0" type="line"/>
      <point x="1509" y="158" type="line"/>
      <point x="1616" y="158" type="line"/>
      <point x="1616" y="319" type="line"/>
      <point x="1509" y="319" type="line"/>
      <point x="1509" y="879" type="line"/>
      <point x="1296" y="879" type="line"/>
      <point x="987" y="305" type="line"/>
      <point x="987" y="158" type="line"/>
      <point x="1315" y="158" type="line"/>
    </contour>
    <contour>
      <point x="1151" y="319" type="line"/>
      <point x="1270" y="545" type="line" smooth="yes"/>
      <point x="1286" y="575"/>
      <point x="1303" y="614"/>
      <point x="1321" y="664" type="curve"/>
      <point x="1317" y="625"/>
      <point x="1315" y="575"/>
      <point x="1315" y="520" type="curve" smooth="yes"/>
      <point x="1315" y="319" type="line"/>
    </contour>
  </outline>
</glyph>
<glyph name="eth" format="2">
  <advance width="1001"/>
  <unicode hex="00F0"/>
  <anchor x="502" y="0" name="bottom"/>
  <anchor x="502" y="1569" name="top"/>
  <outline>
    <contour>
      <point x="387" y="1569" type="curve"/>
      <point x="270" y="1419" type="line"/>
      <point x="309" y="1391"/>
      <point x="348" y="1360"/>
      <point x="385" y="1325" type="curve"/>
      <point x="254" y="1225" type="line"/>
      <point x="354" y="1098" type="line"/>
      <point x="487" y="1198" type="line"/>
      <point x="547" y="1120"/>
      <point x="590" y="1038"/>
      <point x="610" y="952" type="curve"/>
      <point x="604" y="948" type="line"/>
      <point x="565" y="981"/>
      <point x="516" y="997"/>
      <point x="457" y="997" type="curve" smooth="yes"/>
      <point x="244" y="997"/>
      <point x="74" y="813"/>
      <point x="74" y="492" type="curve" smooth="yes"/>
      <point x="74" y="190"/>
      <point x="233" y="-20"/>
      <point x="498" y="-20" type="curve" smooth="yes"/>
      <point x="774" y="-20"/>
      <point x="928" y="190"/>
      <point x="928" y="553" type="curve" smooth="yes"/>
      <point x="928" y="920"/>
      <point x="829" y="1155"/>
      <point x="668" y="1343" type="curve"/>
      <point x="797" y="1440" type="line"/>
      <point x="694" y="1569" type="line"/>
      <point x="549" y="1458" type="line"/>
      <point x="492" y="1505"/>
      <point x="438" y="1540"/>
    </contour>
    <contour>
      <point x="502" y="770" type="curve" smooth="yes"/>
      <point x="610" y="770"/>
      <point x="657" y="664"/>
      <point x="657" y="494" type="curve" smooth="yes"/>
      <point x="657" y="301"/>
      <point x="614" y="205"/>
      <point x="502" y="205" type="curve" smooth="yes"/>
      <point x="391" y="205"/>
      <point x="344" y="315"/>
      <point x="344" y="485" type="curve" smooth="yes"/>
      <point x="344" y="678"/>
      <point x="395" y="770"/>
    </contour>
  </outline>
</glyph>
<glyph name="Eng" format="2">
  <advance width="1274"/>
  <unicode hex="014A"/>
  <anchor x="637" y="-434" name="bottom"/>
  <anchor x="637" y="1462" name="top"/>
  <outline>
    <contour>
      <point x="786" y="-434" type="curve" smooth="yes"/>
      <point x="1034" y="-434"/>
      <point x="1143" y="-276"/>
      <point x="1143" y="51" type="curve" smooth="yes"/>
      <point x="1143" y="1462" type="line"/>
      <point x="879" y="1462" type="line"/>
      <point x="879" y="891" type="line" smooth="yes"/>
      <point x="879" y="805"/>
      <point x="883" y="694"/>
      <point x="891" y="559" type="curve"/>
      <point x="885" y="559" type="line"/>
      <point x="459" y="1462" type="line"/>
      <point x="131" y="1462" type="line"/>
      <point x="131" y="0" type="line"/>
      <point x="391" y="0" type="line"/>
      <point x="391" y="715" type="line" smooth="yes"/>
      <point x="391" y="799"/>
      <point x="387" y="913"/>
      <point x="377" y="1055" type="curve"/>
      <point x="383" y="1055" type="line"/>
      <point x="879" y="8" type="line"/>
      <point x="879" y="-129"/>
      <point x="840" y="-193"/>
      <point x="745" y="-193" type="curve" smooth="yes"/>
      <point x="702" y="-193"/>
      <point x="664" y="-184"/>
      <point x="631" y="-172" type="curve"/>
      <point x="631" y="-412" type="line"/>
      <point x="680" y="-428"/>
      <point x="731" y="-434"/>
    </contour>
  </outline>
</glyph>
<glyph name="OE" format="2">
  <advance width="1452"/>
  <unicode hex="0152"/>
  <anchor x="727" y="0" name="bottom"/>
  <anchor x="727" y="1462" name="top"/>
  <outline>
    <contour>
      <point x="606" y="1481" type="curve"/>
      <point x="254" y="1481"/>
      <point x="88" y="1186"/>
      <point x="88" y="735" type="curve" smooth="yes"/>
      <point x="88" y="289"/>
      <point x="248" y="-16"/>
      <point x="608" y="-16" type="curve" smooth="yes"/>
      <point x="664" y="-16"/>
      <point x="709" y="-10"/>
      <point x="745" y="0" type="curve"/>
      <point x="1366" y="0" type="line"/>
      <point x="1366" y="244" type="line"/>
      <point x="989" y="244" type="line"/>
      <point x="989" y="639" type="line"/>
      <point x="1339" y="639" type="line"/>
      <point x="1339" y="879" type="line"/>
      <point x="989" y="879" type="line"/>
      <point x="989" y="1223" type="line"/>
      <point x="1366" y="1223" type="line"/>
      <point x="1366" y="1462" type="line"/>
      <point x="745" y="1462" type="line"/>
      <point x="707" y="1473"/>
      <point x="662" y="1481"/>
    </contour>
    <contour>
      <point x="625" y="1237" type="curve" smooth="yes"/>
      <point x="664" y="1237"/>
      <point x="694" y="1229"/>
      <point x="717" y="1217" type="curve"/>
      <point x="717" y="242" type="line"/>
      <point x="694" y="236"/>
      <point x="664" y="231"/>
      <point x="627" y="231" type="curve" smooth="yes"/>
      <point x="449" y="233"/>
      <point x="381" y="412"/>
      <point x="381" y="733" type="curve" smooth="yes"/>
      <point x="381" y="1053"/>
      <point x="449" y="1235"/>
    </contour>
  </outline>
</glyph>
<glyph name="oe" format="2">
  <advance width="1511"/>
  <unicode hex="0153"/>
  <anchor x="756" y="0" name="bottom"/>
  <anchor x="756" y="1120" name="top"/>
  <outline>
    <contour>
      <point x="1059" y="1139" type="curve" smooth="yes"/>
      <point x="932" y="1139"/>
      <point x="846" y="1090"/>
      <point x="782" y="991" type="curve"/>
      <point x="717" y="1092"/>
      <point x="625" y="1141"/>
      <point x="502" y="1141" type="curve" smooth="yes"/>
      <point x="211" y="1141"/>
      <point x="74" y="911"/>
      <point x="74" y="563" type="curve" smooth="yes"/>
      <point x="74" y="219"/>
      <point x="219" y="-20"/>
      <point x="498" y="-20" type="curve" smooth="yes"/>
      <point x="627" y="-20"/>
      <point x="721" y="31"/>
      <point x="784" y="133" type="curve"/>
      <point x="854" y="31"/>
      <point x="952" y="-20"/>
      <point x="1092" y="-20" type="curve" smooth="yes"/>
      <point x="1208" y="-20"/>
      <point x="1303" y="4"/>
      <point x="1393" y="57" type="curve"/>
      <point x="1393" y="279" type="line"/>
      <point x="1296" y="219"/>
      <point x="1219" y="195"/>
      <point x="1122" y="195" type="curve" smooth="yes"/>
      <point x="979" y="195"/>
      <point x="911" y="287"/>
      <point x="911" y="483" type="curve"/>
      <point x="1444" y="483" type="line"/>
      <point x="1444" y="633" type="line" smooth="yes"/>
      <point x="1444" y="942"/>
      <point x="1313" y="1139"/>
    </contour>
    <contour>
      <point x="500" y="915" type="curve" smooth="yes"/>
      <point x="608" y="915"/>
      <point x="653" y="799"/>
      <point x="653" y="563" type="curve" smooth="yes"/>
      <point x="653" y="322"/>
      <point x="610" y="205"/>
      <point x="500" y="205" type="curve" smooth="yes"/>
      <point x="393" y="205"/>
      <point x="344" y="326"/>
      <point x="344" y="559" type="curve" smooth="yes"/>
      <point x="344" y="801"/>
      <point x="391" y="915"/>
    </contour>
    <contour>
      <point x="1057" y="928" type="curve" smooth="yes"/>
      <point x="1147" y="928"/>
      <point x="1196" y="836"/>
      <point x="1196" y="676" type="curve"/>
      <point x="911" y="676" type="line"/>
      <point x="915" y="854"/>
      <point x="971" y="928"/>
    </contour>
  </outline>
</glyph>
<glyph name="Tbar" format="2">
  <advance width="879"/>
  <unicode hex="0166"/>
  <anchor x="440" y="0" name="bottom"/>
  <anchor x="440" y="1462" name="top"/>
  <outline>
    <contour>
      <point x="301" y="0" type="line"/>
      <point x="578" y="0" type="line"/>
      <point x="578" y="614" type="line"/>
      <point x="760" y="614" type="line"/>
      <point x="760" y="825" type="line"/>
      <point x="578" y="825" type="line"/>
      <point x="578" y="1217" type="line"/>
      <point x="848" y="1217" type="line"/>
      <point x="848" y="1462" type="line"/>
      <point x="29" y="1462" type="line"/>
      <point x="29" y="1217" type="line"/>
      <point x="301" y="1217" type="line"/>
      <point x="301" y="825" type="line"/>
      <point x="119" y="825" type="line"/>
      <point x="119" y="614" type="line"/>
      <point x="301" y="614" type="line"/>
    </contour>
  </outline>
</glyph>
<glyph name="tbar" format="2">
  <advance width="649"/>
  <unicode hex="0167"/>
  <anchor x="387" y="0" name="bottom"/>
  <anchor x="283" y="1356" name="top"/>
  <outline>
    <contour>
      <point x="31" y="494" type="line"/>
      <point x="586" y="494" type="line"/>
      <point x="586" y="684" type="line"/>
      <point x="31" y="684" type="line"/>
    </contour>
    <component base="t"/>
  </outline>
</glyph>
<glyph name="uni0193" format="2">
  <advance width="1176"/>
  <unicode hex="0193"/>
  <anchor x="649" y="0" name="bottom"/>
  <anchor x="690" y="1749" name="top"/>
  <outline>
    <contour>
      <point x="1079" y="1796" type="curve" smooth="yes"/>
      <point x="956" y="1796"/>
      <point x="825" y="1716"/>
      <point x="825" y="1513" type="curve" smooth="yes"/>
      <point x="825" y="1466" type="line"/>
      <point x="782" y="1477"/>
      <point x="737" y="1483"/>
      <point x="688" y="1483" type="curve" smooth="yes"/>
      <point x="301" y="1483"/>
      <point x="88" y="1192"/>
      <point x="88" y="735" type="curve" smooth="yes"/>
      <point x="88" y="272"/>
      <point x="274" y="-20"/>
      <point x="635" y="-20" type="curve" smooth="yes"/>
      <point x="786" y="-20"/>
      <point x="932" y="6"/>
      <point x="1071" y="61" type="curve"/>
      <point x="1071" y="823" type="line"/>
      <point x="614" y="823" type="line"/>
      <point x="614" y="586" type="line"/>
      <point x="797" y="586" type="line"/>
      <point x="797" y="246" type="line"/>
      <point x="754" y="231"/>
      <point x="705" y="223"/>
      <point x="653" y="223" type="curve" smooth="yes"/>
      <point x="465" y="223"/>
      <point x="379" y="420"/>
      <point x="379" y="727" type="curve" smooth="yes"/>
      <point x="379" y="1059"/>
      <point x="487" y="1241"/>
      <point x="698" y="1241" type="curve" smooth="yes"/>
      <point x="795" y="1241"/>
      <point x="885" y="1212"/>
      <point x="969" y="1159" type="curve"/>
      <point x="1051" y="1391" type="line"/>
      <point x="1051" y="1450" type="line" smooth="yes"/>
      <point x="1051" y="1534"/>
      <point x="1079" y="1561"/>
      <point x="1124" y="1561" type="curve" smooth="yes"/>
      <point x="1161" y="1561"/>
      <point x="1194" y="1546"/>
      <point x="1212" y="1538" type="curve"/>
      <point x="1212" y="1769" type="line"/>
      <point x="1190" y="1782"/>
      <point x="1143" y="1796"/>
    </contour>
  </outline>
</glyph>
<glyph name="uni0196" format="2">
  <advance width="627"/>
  <unicode hex="0196"/>
  <anchor x="354" y="0" name="bottom"/>
  <anchor x="270" y="1462" name="top"/>
  <outline>
    <contour>
      <point x="399" y="-20" type="curve" smooth="yes"/>
      <point x="475" y="-20"/>
      <point x="553" y="-4"/>
      <point x="610" y="31" type="curve"/>
      <point x="610" y="258" type="line"/>
      <point x="569" y="236"/>
      <point x="528" y="223"/>
      <point x="485" y="223" type="curve" smooth="yes"/>
      <point x="432" y="223"/>
      <point x="406" y="258"/>
      <point x="406" y="336" type="curve" smooth="yes"/>
      <point x="406" y="1462" type="line"/>
      <point x="125" y="1462" type="line"/>
      <point x="125" y="322" type="line" smooth="yes"/>
      <point x="125" y="78"/>
      <point x="215" y="-20"/>
    </contour>
  </outline>
</glyph>
<glyph name="uni019A" format="2">
  <advance width="526"/>
  <unicode hex="019A"/>
  <anchor x="264" y="0" name="bottom"/>
  <anchor x="264" y="1556" name="top"/>
  <outline>
    <contour>
      <point x="129" y="0" type="line"/>
      <point x="397" y="0" type="line"/>
      <point x="397" y="659" type="line"/>
      <point x="522" y="659" type="line"/>
      <point x="522" y="852" type="line"/>
      <point x="397" y="852" type="line"/>
      <point x="397" y="1556" type="line"/>
      <point x="129" y="1556" type="line"/>
      <point x="129" y="852" type="line"/>
      <point x="6" y="852" type="line"/>
      <point x="6" y="659" type="line"/>
      <point x="129" y="659" type="line"/>
    </contour>
  </outline>
</glyph>
<glyph name="uni01AD" format="2">
  <advance width="649"/>
  <unicode hex="01AD"/>
  <anchor x="326" y="0" name="bottom"/>
  <anchor x="326" y="1567" name="top"/>
  <outline>
    <contour>
      <point x="436" y="1567" type="curve" smooth="yes"/>
      <point x="244" y="1567"/>
      <point x="133" y="1434"/>
      <point x="133" y="1210" type="curve" smooth="yes"/>
      <point x="133" y="1100" type="line"/>
      <point x="23" y="1042" type="line"/>
      <point x="23" y="899" type="line"/>
      <point x="133" y="899" type="line"/>
      <point x="133" y="334" type="line" smooth="yes"/>
      <point x="133" y="94"/>
      <point x="213" y="-20"/>
      <point x="406" y="-20" type="curve" smooth="yes"/>
      <point x="485" y="-20"/>
      <point x="555" y="-2"/>
      <point x="614" y="31" type="curve"/>
      <point x="614" y="244" type="line"/>
      <point x="569" y="223"/>
      <point x="526" y="213"/>
      <point x="489" y="213" type="curve" smooth="yes"/>
      <point x="424" y="213"/>
      <point x="399" y="256"/>
      <point x="399" y="344" type="curve" smooth="yes"/>
      <point x="399" y="899" type="line"/>
      <point x="600" y="899" type="line"/>
      <point x="600" y="1120" type="line"/>
      <point x="399" y="1120" type="line"/>
      <point x="399" y="1198" type="line" smooth="yes"/>
      <point x="399" y="1294"/>
      <point x="428" y="1333"/>
      <point x="496" y="1333" type="curve" smooth="yes"/>
      <point x="522" y="1333"/>
      <point x="553" y="1327"/>
      <point x="584" y="1315" type="curve"/>
      <point x="584" y="1544" type="line"/>
      <point x="553" y="1556"/>
      <point x="481" y="1567"/>
    </contour>
  </outline>
</glyph>
<glyph name="uni01B9" format="2">
  <advance width="885"/>
  <unicode hex="01B9"/>
  <anchor x="442" y="-492" name="bottom"/>
  <anchor x="442" y="1120" name="top"/>
  <outline>
    <contour>
      <point x="563" y="-492" type="curve" smooth="yes"/>
      <point x="715" y="-492"/>
      <point x="809" y="-451"/>
      <point x="862" y="-424" type="curve"/>
      <point x="862" y="-176" type="line"/>
      <point x="797" y="-213"/>
      <point x="705" y="-252"/>
      <point x="588" y="-252" type="curve" smooth="yes"/>
      <point x="422" y="-252"/>
      <point x="330" y="-154"/>
      <point x="330" y="29" type="curve" smooth="yes"/>
      <point x="330" y="211"/>
      <point x="430" y="287"/>
      <point x="625" y="287" type="curve" smooth="yes"/>
      <point x="698" y="287" type="line"/>
      <point x="698" y="479" type="line"/>
      <point x="416" y="895" type="line"/>
      <point x="829" y="895" type="line"/>
      <point x="829" y="1120" type="line"/>
      <point x="102" y="1120" type="line"/>
      <point x="102" y="940" type="line"/>
      <point x="418" y="487" type="line"/>
      <point x="211" y="463"/>
      <point x="59" y="334"/>
      <point x="59" y="41" type="curve" smooth="yes"/>
      <point x="59" y="-287"/>
      <point x="248" y="-492"/>
    </contour>
  </outline>
</glyph>
<glyph name="uni01BA" format="2">
  <advance width="864"/>
  <unicode hex="01BA"/>
  <anchor x="432" y="-492" name="bottom"/>
  <anchor x="432" y="1120" name="top"/>
  <outline>
    <contour>
      <point x="369" y="-492" type="curve" smooth="yes"/>
      <point x="518" y="-492"/>
      <point x="662" y="-455"/>
      <point x="741" y="-412" type="curve"/>
      <point x="741" y="-190" type="line"/>
      <point x="666" y="-225"/>
      <point x="551" y="-270"/>
      <point x="406" y="-270" type="curve" smooth="yes"/>
      <point x="307" y="-270"/>
      <point x="250" y="-242"/>
      <point x="250" y="-176" type="curve" smooth="yes"/>
      <point x="250" y="-121"/>
      <point x="295" y="-82"/>
      <point x="449" y="-82" type="curve" smooth="yes"/>
      <point x="666" y="-82"/>
      <point x="805" y="51"/>
      <point x="805" y="285" type="curve" smooth="yes"/>
      <point x="805" y="489"/>
      <point x="680" y="604"/>
      <point x="475" y="627" type="curve"/>
      <point x="758" y="940" type="line"/>
      <point x="758" y="1120" type="line"/>
      <point x="51" y="1120" type="line"/>
      <point x="51" y="895" type="line"/>
      <point x="412" y="895" type="line"/>
      <point x="170" y="625" type="line"/>
      <point x="170" y="442" type="line"/>
      <point x="305" y="442" type="line" smooth="yes"/>
      <point x="455" y="442"/>
      <point x="535" y="397"/>
      <point x="535" y="293" type="curve" smooth="yes"/>
      <point x="535" y="188"/>
      <point x="461" y="139"/>
      <point x="369" y="139" type="curve" smooth="yes"/>
      <point x="98" y="139"/>
      <point x="-10" y="20"/>
      <point x="-10" y="-174" type="curve" smooth="yes"/>
      <point x="-10" y="-387"/>
      <point x="135" y="-492"/>
    </contour>
  </outline>
</glyph>
<glyph name="uni01E5" format="2">
  <advance width="1024"/>
  <unicode hex="01E5"/>
  <anchor x="512" y="-492" name="bottom"/>
  <anchor x="512" y="1120" name="top"/>
  <outline>
    <contour>
      <point x="406" y="1141" type="curve" smooth="yes"/>
      <point x="197" y="1141"/>
      <point x="74" y="942"/>
      <point x="74" y="608" type="curve" smooth="yes"/>
      <point x="74" y="289"/>
      <point x="195" y="92"/>
      <point x="397" y="92" type="curve" smooth="yes"/>
      <point x="510" y="92"/>
      <point x="584" y="141"/>
      <point x="643" y="252" type="curve"/>
      <point x="653" y="252" type="line"/>
      <point x="647" y="201"/>
      <point x="643" y="133"/>
      <point x="643" y="88" type="curve" smooth="yes"/>
      <point x="643" y="-8" type="line"/>
      <point x="377" y="-8" type="line"/>
      <point x="377" y="-164" type="line"/>
      <point x="635" y="-164" type="line"/>
      <point x="612" y="-258"/>
      <point x="537" y="-291"/>
      <point x="422" y="-291" type="curve" smooth="yes"/>
      <point x="328" y="-291"/>
      <point x="233" y="-268"/>
      <point x="125" y="-217" type="curve"/>
      <point x="125" y="-422" type="line"/>
      <point x="215" y="-467"/>
      <point x="309" y="-492"/>
      <point x="430" y="-492" type="curve" smooth="yes"/>
      <point x="731" y="-492"/>
      <point x="877" y="-373"/>
      <point x="905" y="-164" type="curve"/>
      <point x="1018" y="-164" type="line"/>
      <point x="1018" y="-8" type="line"/>
      <point x="909" y="-8" type="line"/>
      <point x="909" y="1120" type="line"/>
      <point x="680" y="1120" type="line"/>
      <point x="657" y="977" type="line"/>
      <point x="641" y="977" type="line"/>
      <point x="582" y="1098"/>
      <point x="512" y="1141"/>
    </contour>
    <contour>
      <point x="483" y="909" type="curve" smooth="yes"/>
      <point x="596" y="909"/>
      <point x="643" y="819"/>
      <point x="643" y="625" type="curve" smooth="yes"/>
      <point x="643" y="573" type="line" smooth="yes"/>
      <point x="643" y="410"/>
      <point x="592" y="322"/>
      <point x="487" y="322" type="curve" smooth="yes"/>
      <point x="391" y="322"/>
      <point x="344" y="420"/>
      <point x="344" y="606" type="curve" smooth="yes"/>
      <point x="344" y="801"/>
      <point x="391" y="909"/>
    </contour>
  </outline>
</glyph>
<glyph name="uni023F" format="2">
  <advance width="766"/>
  <unicode hex="023F"/>
  <anchor x="383" y="-492" name="bottom"/>
  <anchor x="383" y="1120" name="top"/>
  <outline>
    <contour>
      <point x="547" y="-492" type="curve" smooth="yes"/>
      <point x="598" y="-492"/>
      <point x="641" y="-479"/>
      <point x="672" y="-467" type="curve"/>
      <point x="672" y="-268" type="line"/>
      <point x="653" y="-274"/>
      <point x="631" y="-285"/>
      <point x="594" y="-285" type="curve" smooth="yes"/>
      <point x="524" y="-285"/>
      <point x="489" y="-231"/>
      <point x="463" y="-117" type="curve" smooth="yes"/>
      <point x="453" y="-74"/>
      <point x="438" y="-39"/>
      <point x="418" y="-16" type="curve"/>
      <point x="604" y="4"/>
      <point x="711" y="123"/>
      <point x="711" y="328" type="curve"/>
      <point x="711" y="500"/>
      <point x="616" y="592"/>
      <point x="479" y="672" type="curve" smooth="yes"/>
      <point x="340" y="756"/>
      <point x="315" y="778"/>
      <point x="315" y="836" type="curve" smooth="yes"/>
      <point x="315" y="891"/>
      <point x="350" y="924"/>
      <point x="416" y="924" type="curve" smooth="yes"/>
      <point x="489" y="924"/>
      <point x="561" y="891"/>
      <point x="625" y="848" type="curve"/>
      <point x="698" y="1053" type="line"/>
      <point x="604" y="1110"/>
      <point x="510" y="1141"/>
      <point x="401" y="1141" type="curve" smooth="yes"/>
      <point x="188" y="1141"/>
      <point x="57" y="1020"/>
      <point x="57" y="823" type="curve" smooth="yes"/>
      <point x="57" y="662"/>
      <point x="139" y="559"/>
      <point x="276" y="481" type="curve" smooth="yes"/>
      <point x="420" y="403"/>
      <point x="444" y="369"/>
      <point x="444" y="313" type="curve" smooth="yes"/>
      <point x="444" y="246"/>
      <point x="403" y="211"/>
      <point x="328" y="211" type="curve" smooth="yes"/>
      <point x="231" y="211"/>
      <point x="131" y="252"/>
      <point x="59" y="301" type="curve"/>
      <point x="59" y="43" type="line"/>
      <point x="66" y="39"/>
      <point x="76" y="33"/>
      <point x="90" y="27" type="curve" smooth="yes"/>
      <point x="154" y="-4"/>
      <point x="205" y="-45"/>
      <point x="238" y="-180" type="curve" smooth="yes"/>
      <point x="283" y="-373"/>
      <point x="342" y="-492"/>
    </contour>
  </outline>
</glyph>
<glyph name="uni0244" format="2">
  <advance width="1151"/>
  <unicode hex="0244"/>
  <anchor x="575" y="0" name="bottom"/>
  <anchor x="575" y="1462" name="top"/>
  <outline>
    <contour>
      <point x="4" y="688" type="line"/>
      <point x="1147" y="688" type="line"/>
      <point x="1147" y="897" type="line"/>
      <point x="4" y="897" type="line"/>
    </contour>
    <component base="U"/>
  </outline>
</glyph>
<glyph name="uni024D" format="2">
  <advance width="711"/>
  <unicode hex="024D"/>
  <anchor x="262" y="0" name="bottom"/>
  <anchor x="397" y="1120" name="top"/>
  <outline>
    <contour>
      <point x="571" y="643" type="line"/>
      <point x="10" y="643" type="line"/>
      <point x="10" y="449" type="line"/>
      <point x="571" y="449" type="line"/>
    </contour>
    <component base="r"/>
  </outline>
</glyph>
<glyph name="uni0254" format="2">
  <advance width="817"/>
  <unicode hex="0254"/>
  <anchor x="369" y="0" name="bottom"/>
  <anchor x="369" y="1120" name="top"/>
  <outline>
    <contour>
      <point x="330" y="1141" type="curve" smooth="yes"/>
      <point x="221" y="1141"/>
      <point x="125" y="1114"/>
      <point x="47" y="1065" type="curve"/>
      <point x="109" y="854" type="line"/>
      <point x="170" y="891"/>
      <point x="231" y="909"/>
      <point x="291" y="909" type="curve" smooth="yes"/>
      <point x="408" y="911"/>
      <point x="471" y="791"/>
      <point x="471" y="559" type="curve" smooth="yes"/>
      <point x="471" y="330"/>
      <point x="412" y="209"/>
      <point x="293" y="209" type="curve" smooth="yes"/>
      <point x="217" y="209"/>
      <point x="143" y="231"/>
      <point x="68" y="285" type="curve"/>
      <point x="68" y="49" type="line"/>
      <point x="131" y="10"/>
      <point x="203" y="-20"/>
      <point x="305" y="-20" type="curve" smooth="yes"/>
      <point x="588" y="-20"/>
      <point x="743" y="184"/>
      <point x="743" y="575" type="curve" smooth="yes"/>
      <point x="743" y="918"/>
      <point x="625" y="1141"/>
    </contour>
  </outline>
</glyph>
<glyph name="uni0256" format="2">
  <advance width="1024"/>
  <unicode hex="0256"/>
  <anchor x="512" y="-492" name="bottom"/>
  <anchor x="512" y="1556" name="top"/>
  <anchor x="954" y="1556" name="topright"/>
  <outline>
    <contour>
      <point x="911" y="-492" type="curve" smooth="yes"/>
      <point x="989" y="-492"/>
      <point x="1057" y="-475"/>
      <point x="1114" y="-440" type="curve"/>
      <point x="1114" y="-223" type="line"/>
      <point x="1075" y="-244"/>
      <point x="1032" y="-258"/>
      <point x="989" y="-258" type="curve" smooth="yes"/>
      <point x="936" y="-258"/>
      <point x="909" y="-223"/>
      <point x="909" y="-145" type="curve" smooth="yes"/>
      <point x="909" y="1556" type="line"/>
      <point x="643" y="1556" type="line"/>
      <point x="643" y="1167" type="line" smooth="yes"/>
      <point x="643" y="1124"/>
      <point x="647" y="1063"/>
      <point x="651" y="977" type="curve"/>
      <point x="641" y="977" type="line"/>
      <point x="584" y="1087"/>
      <point x="500" y="1141"/>
      <point x="397" y="1141" type="curve" smooth="yes"/>
      <point x="193" y="1141"/>
      <point x="74" y="926"/>
      <point x="74" y="561" type="curve" smooth="yes"/>
      <point x="74" y="197"/>
      <point x="190" y="-20"/>
      <point x="406" y="-20" type="curve" smooth="yes"/>
      <point x="514" y="-20"/>
      <point x="578" y="23"/>
      <point x="643" y="123" type="curve"/>
      <point x="653" y="123" type="line"/>
      <point x="645" y="72"/>
      <point x="643" y="23"/>
      <point x="643" y="-29" type="curve" smooth="yes"/>
      <point x="643" y="-150" type="line" smooth="yes"/>
      <point x="643" y="-393"/>
      <point x="727" y="-492"/>
    </contour>
    <contour>
      <point x="485" y="203" type="curve" smooth="yes"/>
      <point x="393" y="203"/>
      <point x="344" y="322"/>
      <point x="344" y="563" type="curve" smooth="yes"/>
      <point x="344" y="791"/>
      <point x="389" y="909"/>
      <point x="485" y="909" type="curve" smooth="yes"/>
      <point x="596" y="909"/>
      <point x="643" y="811"/>
      <point x="643" y="590" type="curve" smooth="yes"/>
      <point x="643" y="526" type="line" smooth="yes"/>
      <point x="643" y="303"/>
      <point x="592" y="203"/>
    </contour>
  </outline>
</glyph>
<glyph name="uni0267" format="2">
  <advance width="1026"/>
  <unicode hex="0267"/>
  <anchor x="514" y="-492" name="bottom"/>
  <anchor x="514" y="1567" name="top"/>
  <outline>
    <contour>
      <point x="420" y="1567" type="curve" smooth="yes"/>
      <point x="227" y="1567"/>
      <point x="115" y="1434"/>
      <point x="115" y="1210" type="curve" smooth="yes"/>
      <point x="115" y="0" type="line"/>
      <point x="381" y="0" type="line"/>
      <point x="381" y="539" type="line" smooth="yes"/>
      <point x="381" y="788"/>
      <point x="418" y="901"/>
      <point x="539" y="901" type="curve" smooth="yes"/>
      <point x="614" y="901"/>
      <point x="647" y="827"/>
      <point x="647" y="664" type="curve" smooth="yes"/>
      <point x="647" y="-150" type="line" smooth="yes"/>
      <point x="647" y="-227"/>
      <point x="621" y="-258"/>
      <point x="567" y="-258" type="curve" smooth="yes"/>
      <point x="524" y="-258"/>
      <point x="483" y="-244"/>
      <point x="442" y="-223" type="curve"/>
      <point x="442" y="-440" type="line"/>
      <point x="500" y="-475"/>
      <point x="569" y="-492"/>
      <point x="645" y="-492" type="curve" smooth="yes"/>
      <point x="829" y="-492"/>
      <point x="913" y="-393"/>
      <point x="913" y="-150" type="curve" smooth="yes"/>
      <point x="913" y="739" type="line" smooth="yes"/>
      <point x="913" y="997"/>
      <point x="811" y="1141"/>
      <point x="618" y="1141" type="curve" smooth="yes"/>
      <point x="506" y="1141"/>
      <point x="420" y="1083"/>
      <point x="377" y="977" type="curve"/>
      <point x="360" y="977" type="line"/>
      <point x="375" y="1030"/>
      <point x="381" y="1083"/>
      <point x="381" y="1120" type="curve" smooth="yes"/>
      <point x="381" y="1206" type="line" smooth="yes"/>
      <point x="381" y="1298"/>
      <point x="410" y="1333"/>
      <point x="477" y="1333" type="curve" smooth="yes"/>
      <point x="504" y="1333"/>
      <point x="535" y="1327"/>
      <point x="565" y="1315" type="curve"/>
      <point x="565" y="1544" type="line"/>
      <point x="535" y="1556"/>
      <point x="465" y="1567"/>
    </contour>
  </outline>
</glyph>
<glyph name="uni026A" format="2">
  <advance width="664"/>
  <unicode hex="026A"/>
  <anchor x="332" y="0" name="bottom"/>
  <anchor x="332" y="1120" name="top"/>
  <outline>
    <contour>
      <point x="602" y="1120" type="line"/>
      <point x="63" y="1120" type="line"/>
      <point x="63" y="967" type="line"/>
      <point x="199" y="922" type="line"/>
      <point x="199" y="197" type="line"/>
      <point x="63" y="152" type="line"/>
      <point x="63" y="0" type="line"/>
      <point x="602" y="0" type="line"/>
      <point x="602" y="152" type="line"/>
      <point x="465" y="197" type="line"/>
      <point x="465" y="922" type="line"/>
      <point x="602" y="967" type="line"/>
    </contour>
  </outline>
</glyph>
<glyph name="uni028A" format="2">
  <advance width="1036"/>
  <unicode hex="028A"/>
  <anchor x="518" y="0" name="bottom"/>
  <anchor x="518" y="1120" name="top"/>
  <outline>
    <contour>
      <point x="516" y="-20" type="curve" smooth="yes"/>
      <point x="827" y="-20"/>
      <point x="944" y="215"/>
      <point x="944" y="520" type="curve" smooth="yes"/>
      <point x="944" y="684"/>
      <point x="907" y="807"/>
      <point x="846" y="893" type="curve"/>
      <point x="981" y="893" type="line"/>
      <point x="981" y="1118" type="line"/>
      <point x="567" y="1118" type="line"/>
      <point x="567" y="924" type="line"/>
      <point x="641" y="885"/>
      <point x="674" y="756"/>
      <point x="674" y="520" type="curve" smooth="yes"/>
      <point x="674" y="324"/>
      <point x="627" y="205"/>
      <point x="518" y="205" type="curve" smooth="yes"/>
      <point x="410" y="205"/>
      <point x="362" y="326"/>
      <point x="362" y="522" type="curve" smooth="yes"/>
      <point x="362" y="756"/>
      <point x="395" y="885"/>
      <point x="471" y="924" type="curve"/>
      <point x="471" y="1118" type="line"/>
      <point x="55" y="1118" type="line"/>
      <point x="55" y="893" type="line"/>
      <point x="197" y="893" type="line"/>
      <point x="131" y="803"/>
      <point x="92" y="678"/>
      <point x="92" y="522" type="curve" smooth="yes"/>
      <point x="92" y="209"/>
      <point x="225" y="-20"/>
    </contour>
  </outline>
</glyph>
<glyph name="eopenclosed" format="2">
  <advance width="1049"/>
  <unicode hex="029A"/>
  <anchor x="524" y="0" name="bottom"/>
  <anchor x="524" y="1120" name="top"/>
  <outline>
    <contour>
      <point x="489" y="1141" type="curve" smooth="yes"/>
      <point x="236" y="1141"/>
      <point x="109" y="1022"/>
      <point x="109" y="844" type="curve" smooth="yes"/>
      <point x="109" y="721"/>
      <point x="174" y="629"/>
      <point x="281" y="594" type="curve"/>
      <point x="281" y="584" type="line"/>
      <point x="150" y="555"/>
      <point x="68" y="471"/>
      <point x="68" y="322" type="curve" smooth="yes"/>
      <point x="68" y="119"/>
      <point x="215" y="-20"/>
      <point x="498" y="-20" type="curve" smooth="yes"/>
      <point x="829" y="-20"/>
      <point x="975" y="201"/>
      <point x="975" y="561" type="curve" smooth="yes"/>
      <point x="975" y="938"/>
      <point x="805" y="1141"/>
    </contour>
    <contour>
      <point x="500" y="920" type="curve" smooth="yes"/>
      <point x="633" y="920"/>
      <point x="702" y="801"/>
      <point x="702" y="557" type="curve" smooth="yes"/>
      <point x="702" y="326"/>
      <point x="635" y="205"/>
      <point x="489" y="205" type="curve" smooth="yes"/>
      <point x="399" y="205"/>
      <point x="338" y="256"/>
      <point x="338" y="342" type="curve" smooth="yes"/>
      <point x="338" y="434"/>
      <point x="391" y="479"/>
      <point x="485" y="479" type="curve" smooth="yes"/>
      <point x="551" y="479" type="line"/>
      <point x="551" y="680" type="line"/>
      <point x="500" y="680" type="line" smooth="yes"/>
      <point x="422" y="680"/>
      <point x="367" y="719"/>
      <point x="367" y="803" type="curve" smooth="yes"/>
      <point x="367" y="868"/>
      <point x="410" y="920"/>
    </contour>
  </outline>
</glyph>
<glyph name="uni029D" format="2">
  <advance width="512"/>
  <unicode hex="029D"/>
  <anchor x="256" y="-492" name="bottom"/>
  <anchor x="256" y="1561" name="top"/>
  <outline>
    <contour>
      <point x="100" y="-492" type="curve" smooth="yes"/>
      <point x="307" y="-492"/>
      <point x="397" y="-365"/>
      <point x="397" y="-180" type="curve"/>
      <point x="502" y="-180" type="line"/>
      <point x="502" y="-20" type="line"/>
      <point x="397" y="-20" type="line"/>
      <point x="397" y="1120" type="line"/>
      <point x="129" y="1120" type="line"/>
      <point x="129" y="-20" type="line"/>
      <point x="94" y="-20" type="line" smooth="yes"/>
      <point x="-80" y="-20"/>
      <point x="-168" y="-119"/>
      <point x="-168" y="-242" type="curve" smooth="yes"/>
      <point x="-168" y="-399"/>
      <point x="-94" y="-492"/>
    </contour>
    <contour>
      <point x="55" y="-338" type="curve" smooth="yes"/>
      <point x="18" y="-338"/>
      <point x="-4" y="-307"/>
      <point x="-4" y="-262" type="curve" smooth="yes"/>
      <point x="-4" y="-201"/>
      <point x="35" y="-180"/>
      <point x="82" y="-180" type="curve" smooth="yes"/>
      <point x="131" y="-180" type="line"/>
      <point x="131" y="-211" type="line" smooth="yes"/>
      <point x="131" y="-297"/>
      <point x="100" y="-338"/>
    </contour>
    <contour>
      <point x="264" y="1257" type="curve" smooth="yes"/>
      <point x="360" y="1257"/>
      <point x="410" y="1309"/>
      <point x="410" y="1407" type="curve" smooth="yes"/>
      <point x="410" y="1507"/>
      <point x="365" y="1561"/>
      <point x="264" y="1561" type="curve" smooth="yes"/>
      <point x="164" y="1561"/>
      <point x="119" y="1509"/>
      <point x="119" y="1407" type="curve" smooth="yes"/>
      <point x="119" y="1309"/>
      <point x="170" y="1257"/>
    </contour>
  </outline>
</glyph>
<glyph name="uni02C0" format="2">
  <advance width="522"/>
  <unicode hex="02C0"/>
  <outline>
    <contour>
      <point x="119" y="1010" type="line"/>
      <point x="303" y="1010" type="line"/>
      <point x="303" y="1094" type="line"/>
      <point x="430" y="1139"/>
      <point x="481" y="1206"/>
      <point x="481" y="1327" type="curve" smooth="yes"/>
      <point x="481" y="1470"/>
      <point x="395" y="1569"/>
      <point x="223" y="1569" type="curve" smooth="yes"/>
      <point x="139" y="1569"/>
      <point x="70" y="1546"/>
      <point x="16" y="1509" type="curve"/>
      <point x="76" y="1362" type="line"/>
      <point x="106" y="1391"/>
      <point x="143" y="1405"/>
      <point x="180" y="1405" type="curve" smooth="yes"/>
      <point x="236" y="1405"/>
      <point x="264" y="1366"/>
      <point x="264" y="1321" type="curve" smooth="yes"/>
      <point x="264" y="1249"/>
      <point x="215" y="1223"/>
      <point x="119" y="1196" type="curve"/>
    </contour>
  </outline>
</glyph>
<glyph name="tilde" format="2">
  <advance width="834"/>
  <unicode hex="02DC"/>
  <outline>
    <contour>
      <point x="82" y="1239" type="curve"/>
      <point x="227" y="1239" type="line"/>
      <point x="236" y="1313"/>
      <point x="264" y="1346"/>
      <point x="293" y="1346" type="curve" smooth="yes"/>
      <point x="358" y="1346"/>
      <point x="469" y="1241"/>
      <point x="573" y="1241" type="curve" smooth="yes"/>
      <point x="672" y="1241"/>
      <point x="748" y="1348"/>
      <point x="752" y="1546" type="curve"/>
      <point x="606" y="1546" type="line"/>
      <point x="596" y="1479"/>
      <point x="580" y="1440"/>
      <point x="543" y="1440" type="curve" smooth="yes"/>
      <point x="457" y="1440"/>
      <point x="369" y="1544"/>
      <point x="260" y="1544" type="curve" smooth="yes"/>
      <point x="115" y="1544"/>
      <point x="86" y="1366"/>
    </contour>
  </outline>
</glyph>
<glyph name="uptackbelowcomb" format="2">
  <unicode hex="031D"/>
  <anchor x="0" y="0" name="_bottom"/>
  <anchor x="4" y="-418" name="bottom"/>
  <outline>
    <contour>
      <point x="55" y="-98" type="line"/>
      <point x="-55" y="-98" type="line"/>
      <point x="-55" y="-309" type="line"/>
      <point x="-168" y="-309" type="line"/>
      <point x="-168" y="-418" type="line"/>
      <point x="168" y="-418" type="line"/>
      <point x="168" y="-309" type="line"/>
      <point x="55" y="-309" type="line"/>
    </contour>
  </outline>
</glyph>
<glyph name="ringhalfrightbelowcomb" format="2">
  <unicode hex="0339"/>
  <anchor x="2" y="0" name="_bottom"/>
  <anchor x="6" y="-487" name="bottom"/>
  <outline>
    <contour>
      <point x="-127" y="-33" type="curve"/>
      <point x="-127" y="-170" type="line"/>
      <point x="-76" y="-170"/>
      <point x="-35" y="-203"/>
      <point x="-35" y="-260" type="curve" smooth="yes"/>
      <point x="-35" y="-315"/>
      <point x="-74" y="-348"/>
      <point x="-127" y="-348" type="curve"/>
      <point x="-127" y="-487" type="line"/>
      <point x="31" y="-487"/>
      <point x="129" y="-401"/>
      <point x="129" y="-258" type="curve" smooth="yes"/>
      <point x="129" y="-119"/>
      <point x="29" y="-33"/>
    </contour>
  </outline>
</glyph>
<glyph name="nottildeabovecomb" format="2">
  <unicode hex="034A"/>
  <anchor x="0" y="1120" name="_top"/>
  <anchor x="4" y="1569" name="top"/>
  <outline>
    <contour>
      <point x="121" y="1245" type="curve" smooth="yes"/>
      <point x="240" y="1245"/>
      <point x="289" y="1352"/>
      <point x="297" y="1489" type="curve"/>
      <point x="190" y="1489" type="line"/>
      <point x="184" y="1417"/>
      <point x="166" y="1372"/>
      <point x="123" y="1372" type="curve" smooth="yes"/>
      <point x="104" y="1372"/>
      <point x="88" y="1378"/>
      <point x="72" y="1393" type="curve"/>
      <point x="141" y="1524" type="line"/>
      <point x="53" y="1569" type="line"/>
      <point x="-10" y="1450" type="line"/>
      <point x="-39" y="1473"/>
      <point x="-76" y="1489"/>
      <point x="-121" y="1489" type="curve" smooth="yes"/>
      <point x="-231" y="1489"/>
      <point x="-287" y="1378"/>
      <point x="-297" y="1243" type="curve"/>
      <point x="-193" y="1243" type="line"/>
      <point x="-178" y="1323"/>
      <point x="-160" y="1362"/>
      <point x="-117" y="1362" type="curve" smooth="yes"/>
      <point x="-102" y="1362"/>
      <point x="-86" y="1354"/>
      <point x="-66" y="1337" type="curve"/>
      <point x="-137" y="1202" type="line"/>
      <point x="-49" y="1157" type="line"/>
      <point x="14" y="1284" type="line"/>
      <point x="47" y="1262"/>
      <point x="84" y="1245"/>
    </contour>
  </outline>
</glyph>
<glyph name="Psi" format="2">
  <advance width="1475"/>
  <unicode hex="03A8"/>
  <anchor x="737" y="0" name="bottom"/>
  <anchor x="737" y="1462" name="top"/>
  <outline>
    <contour>
      <point x="1366" y="1462" type="line"/>
      <point x="1085" y="1462" type="line"/>
      <point x="1085" y="944" type="line" smooth="yes"/>
      <point x="1085" y="739"/>
      <point x="1024" y="655"/>
      <point x="874" y="655" type="curve"/>
      <point x="874" y="1462" type="line"/>
      <point x="604" y="1462" type="line"/>
      <point x="604" y="655" type="line"/>
      <point x="436" y="655"/>
      <point x="393" y="752"/>
      <point x="393" y="948" type="curve" smooth="yes"/>
      <point x="393" y="1462" type="line"/>
      <point x="113" y="1462" type="line"/>
      <point x="113" y="956" type="line" smooth="yes"/>
      <point x="113" y="586"/>
      <point x="252" y="412"/>
      <point x="604" y="412" type="curve"/>
      <point x="604" y="0" type="line"/>
      <point x="874" y="0" type="line"/>
      <point x="874" y="412" type="line"/>
      <point x="1221" y="412"/>
      <point x="1366" y="596"/>
      <point x="1366" y="975" type="curve" smooth="yes"/>
    </contour>
  </outline>
</glyph>
<glyph name="alpha" format="2">
  <advance width="1075"/>
  <unicode hex="03B1"/>
  <anchor x="549" y="0" name="bottom"/>
  <anchor x="573" y="1120" name="top"/>
  <outline>
    <contour>
      <point x="496" y="205" type="curve" smooth="yes"/>
      <point x="393" y="205"/>
      <point x="344" y="317"/>
      <point x="344" y="553" type="curve" smooth="yes"/>
      <point x="344" y="782"/>
      <point x="391" y="909"/>
      <point x="492" y="909" type="curve" smooth="yes"/>
      <point x="602" y="909"/>
      <point x="653" y="801"/>
      <point x="653" y="557" type="curve" smooth="yes"/>
      <point x="653" y="543" type="line" smooth="yes"/>
      <point x="653" y="313"/>
      <point x="602" y="205"/>
    </contour>
    <contour>
      <point x="408" y="-20" type="curve" smooth="yes"/>
      <point x="516" y="-20"/>
      <point x="602" y="39"/>
      <point x="659" y="150" type="curve"/>
      <point x="676" y="150" type="line"/>
      <point x="717" y="29"/>
      <point x="788" y="-20"/>
      <point x="932" y="-20" type="curve" smooth="yes"/>
      <point x="961" y="-20"/>
      <point x="1032" y="-8"/>
      <point x="1047" y="4" type="curve"/>
      <point x="1047" y="219" type="line"/>
      <point x="1032" y="213"/>
      <point x="1014" y="209"/>
      <point x="991" y="209" type="curve" smooth="yes"/>
      <point x="946" y="209"/>
      <point x="920" y="254"/>
      <point x="920" y="340" type="curve" smooth="yes"/>
      <point x="920" y="684" type="line"/>
      <point x="920" y="836"/>
      <point x="942" y="1001"/>
      <point x="977" y="1120" type="curve"/>
      <point x="745" y="1120" type="line"/>
      <point x="721" y="1085"/>
      <point x="700" y="1030"/>
      <point x="684" y="965" type="curve"/>
      <point x="674" y="965" type="line"/>
      <point x="623" y="1081"/>
      <point x="545" y="1141"/>
      <point x="424" y="1141" type="curve" smooth="yes"/>
      <point x="205" y="1141"/>
      <point x="74" y="930"/>
      <point x="74" y="555" type="curve" smooth="yes"/>
      <point x="74" y="190"/>
      <point x="197" y="-20"/>
    </contour>
  </outline>
</glyph>
<glyph name="gamma" format="2">
  <advance width="913"/>
  <unicode hex="03B3"/>
  <anchor x="457" y="-492" name="bottom"/>
  <anchor x="457" y="1120" name="top"/>
  <anchor x="893" y="1120" name="topright"/>
  <outline>
    <contour>
      <point x="905" y="1120" type="line"/>
      <point x="631" y="1120" type="line"/>
      <point x="537" y="721" type="line" smooth="yes"/>
      <point x="506" y="578"/>
      <point x="477" y="455"/>
      <point x="465" y="348" type="curve"/>
      <point x="459" y="348" type="line"/>
      <point x="446" y="471"/>
      <point x="418" y="600"/>
      <point x="385" y="731" type="curve" smooth="yes"/>
      <point x="291" y="1120" type="line"/>
      <point x="6" y="1120" type="line"/>
      <point x="319" y="0" type="line"/>
      <point x="287" y="-133"/>
      <point x="250" y="-373"/>
      <point x="250" y="-492" type="curve"/>
      <point x="535" y="-492" type="line"/>
      <point x="535" y="-336"/>
      <point x="567" y="-125"/>
      <point x="608" y="33" type="curve" smooth="yes"/>
    </contour>
  </outline>
</glyph>
<glyph name="epsilon" format="2">
  <advance width="831"/>
  <unicode hex="03B5"/>
  <anchor x="416" y="0" name="bottom"/>
  <anchor x="481" y="1120" name="top"/>
  <outline>
    <contour>
      <point x="616" y="680" type="line"/>
      <point x="545" y="680" type="line"/>
      <point x="426" y="680"/>
      <point x="373" y="717"/>
      <point x="373" y="815" type="curve" smooth="yes"/>
      <point x="373" y="881"/>
      <point x="416" y="920"/>
      <point x="498" y="920" type="curve" smooth="yes"/>
      <point x="557" y="920"/>
      <point x="625" y="897"/>
      <point x="690" y="854" type="curve"/>
      <point x="780" y="1057" type="line"/>
      <point x="670" y="1118"/>
      <point x="573" y="1141"/>
      <point x="469" y="1141" type="curve" smooth="yes"/>
      <point x="256" y="1141"/>
      <point x="115" y="1022"/>
      <point x="115" y="844" type="curve" smooth="yes"/>
      <point x="115" y="721"/>
      <point x="174" y="629"/>
      <point x="281" y="594" type="curve"/>
      <point x="281" y="584" type="line"/>
      <point x="147" y="557"/>
      <point x="68" y="453"/>
      <point x="68" y="313" type="curve" smooth="yes"/>
      <point x="68" y="115"/>
      <point x="182" y="-20"/>
      <point x="453" y="-20" type="curve" smooth="yes"/>
      <point x="582" y="-20"/>
      <point x="674" y="-2"/>
      <point x="770" y="53" type="curve"/>
      <point x="770" y="287" type="line"/>
      <point x="686" y="233"/>
      <point x="586" y="205"/>
      <point x="500" y="205" type="curve" smooth="yes"/>
      <point x="397" y="205"/>
      <point x="338" y="250"/>
      <point x="338" y="336" type="curve" smooth="yes"/>
      <point x="338" y="426"/>
      <point x="389" y="479"/>
      <point x="528" y="479" type="curve" smooth="yes"/>
      <point x="616" y="479" type="line"/>
    </contour>
  </outline>
</glyph>
<glyph name="psi" format="2">
  <advance width="1368"/>
  <unicode hex="03C8"/>
  <anchor x="684" y="-492" name="bottom"/>
  <anchor x="684" y="1554" name="top"/>
  <outline>
    <contour>
      <point x="815" y="1554" type="line"/>
      <point x="555" y="1554" type="line"/>
      <point x="555" y="217" type="line"/>
      <point x="422" y="231"/>
      <point x="375" y="326"/>
      <point x="375" y="528" type="curve" smooth="yes"/>
      <point x="375" y="1120" type="line"/>
      <point x="109" y="1120" type="line"/>
      <point x="109" y="514" type="line" smooth="yes"/>
      <point x="109" y="150"/>
      <point x="260" y="-6"/>
      <point x="555" y="-18" type="curve"/>
      <point x="555" y="-492" type="line"/>
      <point x="815" y="-492" type="line"/>
      <point x="815" y="-18" type="line"/>
      <point x="1118" y="0"/>
      <point x="1276" y="207"/>
      <point x="1276" y="578" type="curve" smooth="yes"/>
      <point x="1276" y="748"/>
      <point x="1255" y="905"/>
      <point x="1200" y="1120" type="curve"/>
      <point x="940" y="1120" type="line"/>
      <point x="985" y="932"/>
      <point x="1008" y="754"/>
      <point x="1008" y="584" type="curve" smooth="yes"/>
      <point x="1008" y="336"/>
      <point x="956" y="236"/>
      <point x="815" y="217" type="curve"/>
    </contour>
  </outline>
</glyph>
<glyph name="uni03FB" format="2">
  <advance width="1309"/>
  <unicode hex="03FB"/>
  <anchor x="655" y="-492" name="bottom"/>
  <anchor x="655" y="1120" name="top"/>
  <outline>
    <contour>
      <point x="115" y="-492" type="line"/>
      <point x="362" y="-492" type="line"/>
      <point x="362" y="657" type="line" smooth="yes"/>
      <point x="362" y="731"/>
      <point x="362" y="807"/>
      <point x="360" y="881" type="curve"/>
      <point x="561" y="375" type="line"/>
      <point x="745" y="375" type="line"/>
      <point x="944" y="881" type="line"/>
      <point x="942" y="817"/>
      <point x="942" y="748"/>
      <point x="942" y="680" type="curve"/>
      <point x="942" y="0" type="line"/>
      <point x="1196" y="0" type="line"/>
      <point x="1196" y="1120" type="line"/>
      <point x="823" y="1120" type="line"/>
      <point x="655" y="676" type="line"/>
      <point x="481" y="1120" type="line"/>
      <point x="115" y="1120" type="line"/>
    </contour>
  </outline>
</glyph>
<glyph name="afii10076" format="2">
  <advance width="979"/>
  <unicode hex="043A"/>
  <anchor x="489" y="0" name="bottom"/>
  <anchor x="520" y="1120" name="top"/>
  <outline>
    <contour>
      <point x="666" y="1120" type="line"/>
      <point x="381" y="582" type="line"/>
      <point x="381" y="1120" type="line"/>
      <point x="115" y="1120" type="line"/>
      <point x="115" y="0" type="line"/>
      <point x="381" y="0" type="line"/>
      <point x="381" y="573" type="line"/>
      <point x="682" y="0" type="line"/>
      <point x="977" y="0" type="line"/>
      <point x="645" y="586" type="line"/>
      <point x="952" y="1120" type="line"/>
    </contour>
  </outline>
</glyph>
<glyph name="afii10091" format="2">
  <advance width="1561"/>
  <unicode hex="0449"/>
  <anchor x="756" y="0" name="bottom"/>
  <anchor x="756" y="1120" name="top"/>
  <outline>
    <contour>
      <point x="1397" y="1120" type="line"/>
      <point x="1128" y="1120" type="line"/>
      <point x="1128" y="225" type="line"/>
      <point x="889" y="225" type="line"/>
      <point x="889" y="1120" type="line"/>
      <point x="623" y="1120" type="line"/>
      <point x="623" y="225" type="line"/>
      <point x="381" y="225" type="line"/>
      <point x="381" y="1120" type="line"/>
      <point x="115" y="1120" type="line"/>
      <point x="115" y="0" type="line"/>
      <point x="1270" y="0" type="line"/>
      <point x="1270" y="-403" type="line"/>
      <point x="1530" y="-403" type="line"/>
      <point x="1530" y="225" type="line"/>
      <point x="1397" y="225" type="line"/>
    </contour>
  </outline>
</glyph>
<glyph name="afii10101" format="2">
  <advance width="848"/>
  <unicode hex="0454"/>
  <anchor x="424" y="0" name="bottom"/>
  <anchor x="424" y="1120" name="top"/>
  <outline>
    <contour>
      <point x="508" y="-20" type="curve" smooth="yes"/>
      <point x="602" y="-20"/>
      <point x="702" y="8"/>
      <point x="772" y="63" type="curve"/>
      <point x="772" y="285" type="line"/>
      <point x="696" y="231"/>
      <point x="616" y="203"/>
      <point x="535" y="203" type="curve" smooth="yes"/>
      <point x="426" y="203"/>
      <point x="365" y="289"/>
      <point x="350" y="463" type="curve"/>
      <point x="639" y="463" type="line"/>
      <point x="639" y="666" type="line"/>
      <point x="350" y="666" type="line"/>
      <point x="369" y="836"/>
      <point x="428" y="922"/>
      <point x="526" y="922" type="curve" smooth="yes"/>
      <point x="598" y="922"/>
      <point x="664" y="899"/>
      <point x="723" y="862" type="curve"/>
      <point x="795" y="1067" type="line"/>
      <point x="713" y="1116"/>
      <point x="621" y="1141"/>
      <point x="526" y="1141" type="curve" smooth="yes"/>
      <point x="221" y="1141"/>
      <point x="74" y="913"/>
      <point x="74" y="555" type="curve" smooth="yes"/>
      <point x="74" y="182"/>
      <point x="221" y="-20"/>
    </contour>
  </outline>
</glyph>
<glyph name="afii10106" format="2">
  <advance width="1427"/>
  <unicode hex="0459"/>
  <anchor x="715" y="0" name="bottom"/>
  <anchor x="715" y="1120" name="top"/>
  <outline>
    <contour>
      <point x="887" y="1120" type="line"/>
      <point x="229" y="1120" type="line"/>
      <point x="203" y="483"/>
      <point x="164" y="215"/>
      <point x="70" y="215" type="curve" smooth="yes"/>
      <point x="47" y="215"/>
      <point x="27" y="221"/>
      <point x="12" y="231" type="curve"/>
      <point x="12" y="6" type="line"/>
      <point x="49" y="-8"/>
      <point x="92" y="-18"/>
      <point x="139" y="-18" type="curve" smooth="yes"/>
      <point x="377" y="-18"/>
      <point x="434" y="227"/>
      <point x="475" y="885" type="curve"/>
      <point x="627" y="885" type="line"/>
      <point x="627" y="0" type="line"/>
      <point x="981" y="0" type="line" smooth="yes"/>
      <point x="1229" y="0"/>
      <point x="1372" y="115"/>
      <point x="1372" y="356" type="curve" smooth="yes"/>
      <point x="1372" y="590"/>
      <point x="1231" y="694"/>
      <point x="956" y="694" type="curve" smooth="yes"/>
      <point x="887" y="694" type="line"/>
    </contour>
    <contour>
      <point x="963" y="492" type="line"/>
      <point x="1061" y="492"/>
      <point x="1104" y="440"/>
      <point x="1104" y="344" type="curve" smooth="yes"/>
      <point x="1104" y="252"/>
      <point x="1055" y="203"/>
      <point x="963" y="203" type="curve" smooth="yes"/>
      <point x="887" y="203" type="line"/>
      <point x="887" y="492" type="line"/>
    </contour>
  </outline>
</glyph>
<glyph name="uni0468" format="2">
  <advance width="1784"/>
  <unicode hex="0468"/>
  <anchor x="1159" y="0" name="bottom"/>
  <anchor x="1159" y="1462" name="top"/>
  <outline>
    <contour>
      <point x="1325" y="1462" type="line"/>
      <point x="952" y="1462" type="line"/>
      <point x="768" y="881" type="line"/>
      <point x="412" y="881" type="line"/>
      <point x="412" y="1462" type="line"/>
      <point x="131" y="1462" type="line"/>
      <point x="131" y="0" type="line"/>
      <point x="412" y="0" type="line"/>
      <point x="412" y="639" type="line"/>
      <point x="688" y="639" type="line"/>
      <point x="487" y="0" type="line"/>
      <point x="782" y="0" type="line"/>
      <point x="954" y="600" type="line"/>
      <point x="1008" y="600" type="line"/>
      <point x="1008" y="0" type="line"/>
      <point x="1268" y="0" type="line"/>
      <point x="1268" y="600" type="line"/>
      <point x="1319" y="600" type="line"/>
      <point x="1493" y="0" type="line"/>
      <point x="1790" y="0" type="line"/>
    </contour>
    <contour>
      <point x="1137" y="1251" type="curve"/>
      <point x="1145" y="1206"/>
      <point x="1155" y="1165"/>
      <point x="1165" y="1130" type="curve" smooth="yes"/>
      <point x="1253" y="825" type="line"/>
      <point x="1020" y="825" type="line"/>
      <point x="1108" y="1126" type="line" smooth="yes"/>
      <point x="1118" y="1161"/>
      <point x="1128" y="1204"/>
    </contour>
  </outline>
</glyph>
<glyph name="uni046D" format="2">
  <advance width="1612"/>
  <unicode hex="046D"/>
  <anchor x="1032" y="0" name="bottom"/>
  <anchor x="1032" y="1120" name="top"/>
  <outline>
    <contour>
      <point x="1487" y="1120" type="line"/>
      <point x="582" y="1120" type="line"/>
      <point x="582" y="991" type="line"/>
      <point x="776" y="694" type="line"/>
      <point x="381" y="694" type="line"/>
      <point x="381" y="1120" type="line"/>
      <point x="115" y="1120" type="line"/>
      <point x="115" y="0" type="line"/>
      <point x="381" y="0" type="line"/>
      <point x="381" y="469" type="line"/>
      <point x="616" y="469" type="line"/>
      <point x="598" y="440"/>
      <point x="584" y="403"/>
      <point x="571" y="356" type="curve" smooth="yes"/>
      <point x="479" y="0" type="line"/>
      <point x="735" y="0" type="line"/>
      <point x="817" y="354" type="line"/>
      <point x="838" y="430"/>
      <point x="858" y="461"/>
      <point x="920" y="461" type="curve"/>
      <point x="920" y="0" type="line"/>
      <point x="1153" y="0" type="line"/>
      <point x="1153" y="463" type="line"/>
      <point x="1212" y="463"/>
      <point x="1237" y="434"/>
      <point x="1257" y="352" type="curve" smooth="yes"/>
      <point x="1337" y="0" type="line"/>
      <point x="1602" y="0" type="line"/>
      <point x="1509" y="342" type="line" smooth="yes"/>
      <point x="1462" y="512"/>
      <point x="1399" y="606"/>
      <point x="1257" y="639" type="curve"/>
      <point x="1487" y="991" type="line"/>
    </contour>
    <contour>
      <point x="1188" y="928" type="line"/>
      <point x="1032" y="672" type="line"/>
      <point x="879" y="928" type="line"/>
    </contour>
  </outline>
</glyph>
<glyph name="uni047C" format="2">
  <advance width="1673"/>
  <unicode hex="047C"/>
  <outline>
    <contour>
      <point x="535" y="1923" type="line"/>
      <point x="702" y="1923" type="line"/>
      <point x="702" y="1995"/>
      <point x="725" y="2034"/>
      <point x="774" y="2034" type="curve" smooth="yes"/>
      <point x="829" y="2034"/>
      <point x="997" y="1923"/>
      <point x="1153" y="1923" type="curve" smooth="yes"/>
      <point x="1165" y="1923" type="line"/>
      <point x="1165" y="2109" type="line"/>
      <point x="1147" y="2109" type="line" smooth="yes"/>
      <point x="985" y="2111"/>
      <point x="887" y="2232"/>
      <point x="745" y="2232" type="curve" smooth="yes"/>
      <point x="612" y="2232"/>
      <point x="537" y="2161"/>
      <point x="535" y="1972" type="curve" smooth="yes"/>
    </contour>
    <contour>
      <point x="731" y="1509" type="line"/>
      <point x="915" y="1526"/>
      <point x="987" y="1604"/>
      <point x="987" y="1735" type="curve" smooth="yes"/>
      <point x="987" y="1841"/>
      <point x="934" y="1905"/>
      <point x="846" y="1905" type="curve" smooth="yes"/>
      <point x="770" y="1905"/>
      <point x="725" y="1864"/>
      <point x="725" y="1800" type="curve" smooth="yes"/>
      <point x="725" y="1704"/>
      <point x="838" y="1743"/>
      <point x="838" y="1669" type="curve" smooth="yes"/>
      <point x="838" y="1638"/>
      <point x="811" y="1612"/>
      <point x="731" y="1606" type="curve"/>
    </contour>
    <component base="uniA64C"/>
  </outline>
</glyph>
<glyph name="dasiapneumatacomb-cy" format="2">
  <unicode hex="0485"/>
  <anchor x="-467" y="1120" name="_top"/>
  <anchor x="-463" y="1628" name="top"/>
  <outline>
    <contour>
      <point x="-610" y="1460" type="curve" smooth="yes"/>
      <point x="-610" y="1313"/>
      <point x="-514" y="1233"/>
      <point x="-324" y="1219" type="curve"/>
      <point x="-324" y="1315" type="line"/>
      <point x="-426" y="1325"/>
      <point x="-461" y="1356"/>
      <point x="-461" y="1393" type="curve" smooth="yes"/>
      <point x="-461" y="1462"/>
      <point x="-348" y="1427"/>
      <point x="-348" y="1524" type="curve" smooth="yes"/>
      <point x="-348" y="1587"/>
      <point x="-393" y="1628"/>
      <point x="-469" y="1628" type="curve" smooth="yes"/>
      <point x="-557" y="1628"/>
      <point x="-610" y="1565"/>
    </contour>
  </outline>
</glyph>
<glyph name="psilipneumatacomb-cy" format="2">
  <unicode hex="0486"/>
  <anchor x="-467" y="1120" name="_top"/>
  <anchor x="-463" y="1628" name="top"/>
  <outline>
    <contour>
      <point x="-324" y="1460" type="curve" smooth="yes"/>
      <point x="-324" y="1565"/>
      <point x="-377" y="1628"/>
      <point x="-465" y="1628" type="curve" smooth="yes"/>
      <point x="-541" y="1628"/>
      <point x="-586" y="1587"/>
      <point x="-586" y="1524" type="curve" smooth="yes"/>
      <point x="-586" y="1425"/>
      <point x="-473" y="1468"/>
      <point x="-473" y="1393" type="curve" smooth="yes"/>
      <point x="-473" y="1356"/>
      <point x="-508" y="1325"/>
      <point x="-610" y="1315" type="curve"/>
      <point x="-610" y="1219" type="line"/>
      <point x="-418" y="1233"/>
      <point x="-324" y="1313"/>
    </contour>
  </outline>
</glyph>
<glyph name="uni04C8" format="2">
  <advance width="1032"/>
  <unicode hex="04C8"/>
  <anchor x="516" y="-494" name="bottom"/>
  <anchor x="516" y="1120" name="top"/>
  <outline>
    <contour>
      <point x="915" y="1120" type="line"/>
      <point x="649" y="1120" type="line"/>
      <point x="649" y="690" type="line"/>
      <point x="381" y="690" type="line"/>
      <point x="381" y="1120" type="line"/>
      <point x="115" y="1120" type="line"/>
      <point x="115" y="0" type="line"/>
      <point x="381" y="0" type="line"/>
      <point x="381" y="463" type="line"/>
      <point x="649" y="463" type="line"/>
      <point x="649" y="-39" type="line" smooth="yes"/>
      <point x="649" y="-188"/>
      <point x="612" y="-262"/>
      <point x="530" y="-262" type="curve" smooth="yes"/>
      <point x="492" y="-262"/>
      <point x="453" y="-250"/>
      <point x="414" y="-229" type="curve"/>
      <point x="414" y="-461" type="line"/>
      <point x="453" y="-481"/>
      <point x="535" y="-494"/>
      <point x="592" y="-494" type="curve" smooth="yes"/>
      <point x="803" y="-494"/>
      <point x="915" y="-334"/>
      <point x="915" y="-51" type="curve" smooth="yes"/>
    </contour>
  </outline>
</glyph>
<glyph name="uni04C9" format="2">
  <advance width="1278"/>
  <unicode hex="04C9"/>
  <anchor x="639" y="-432" name="bottom"/>
  <anchor x="639" y="1462" name="top"/>
  <outline>
    <contour>
      <point x="1055" y="260" type="line"/>
      <point x="1055" y="1462" type="line"/>
      <point x="774" y="1462" type="line"/>
      <point x="774" y="883" type="line"/>
      <point x="412" y="883" type="line"/>
      <point x="412" y="1462" type="line"/>
      <point x="131" y="1462" type="line"/>
      <point x="131" y="0" type="line"/>
      <point x="412" y="0" type="line"/>
      <point x="412" y="639" type="line"/>
      <point x="774" y="639" type="line"/>
      <point x="774" y="0" type="line"/>
      <point x="952" y="0" type="line"/>
      <point x="809" y="-432" type="line"/>
      <point x="1114" y="-432" type="line"/>
      <point x="1251" y="260" type="line"/>
    </contour>
  </outline>
</glyph>
<glyph name="uni0504" format="2">
  <advance width="1526"/>
  <unicode hex="0504"/>
  <anchor x="764" y="0" name="bottom"/>
  <anchor x="764" y="1462" name="top"/>
  <outline>
    <contour>
      <point x="436" y="1483" type="curve" smooth="yes"/>
      <point x="258" y="1483"/>
      <point x="152" y="1446"/>
      <point x="31" y="1346" type="curve"/>
      <point x="141" y="1139" type="line"/>
      <point x="205" y="1204"/>
      <point x="285" y="1239"/>
      <point x="375" y="1239" type="curve" smooth="yes"/>
      <point x="494" y="1239"/>
      <point x="551" y="1186"/>
      <point x="551" y="1075" type="curve" smooth="yes"/>
      <point x="547" y="932"/>
      <point x="481" y="885"/>
      <point x="305" y="881" type="curve" smooth="yes"/>
      <point x="193" y="881" type="line"/>
      <point x="193" y="641" type="line"/>
      <point x="313" y="641" type="line" smooth="yes"/>
      <point x="496" y="641"/>
      <point x="582" y="571"/>
      <point x="582" y="426" type="curve" smooth="yes"/>
      <point x="582" y="104"/>
      <point x="705" y="-20"/>
      <point x="999" y="-20" type="curve" smooth="yes"/>
      <point x="1284" y="-20"/>
      <point x="1407" y="119"/>
      <point x="1407" y="436" type="curve" smooth="yes"/>
      <point x="1407" y="848" type="line"/>
      <point x="1126" y="848" type="line"/>
      <point x="1126" y="420" type="line" smooth="yes"/>
      <point x="1126" y="285"/>
      <point x="1094" y="223"/>
      <point x="999" y="223" type="curve" smooth="yes"/>
      <point x="899" y="223"/>
      <point x="868" y="279"/>
      <point x="868" y="420" type="curve" smooth="yes"/>
      <point x="868" y="608"/>
      <point x="766" y="739"/>
      <point x="571" y="762" type="curve"/>
      <point x="571" y="770" type="line"/>
      <point x="741" y="809"/>
      <point x="831" y="932"/>
      <point x="831" y="1122" type="curve" smooth="yes"/>
      <point x="831" y="1343"/>
      <point x="676" y="1483"/>
    </contour>
  </outline>
</glyph>
<glyph name="uni0523" format="2">
  <advance width="1483"/>
  <unicode hex="0523"/>
  <anchor x="741" y="-494" name="bottom"/>
  <anchor x="741" y="1120" name="top"/>
  <outline>
    <contour>
      <point x="1049" y="-494" type="curve" smooth="yes"/>
      <point x="1296" y="-494"/>
      <point x="1425" y="-283"/>
      <point x="1425" y="86" type="curve" smooth="yes"/>
      <point x="1425" y="418"/>
      <point x="1270" y="627"/>
      <point x="1014" y="627" type="curve" smooth="yes"/>
      <point x="985" y="627"/>
      <point x="952" y="621"/>
      <point x="915" y="612" type="curve"/>
      <point x="915" y="1120" type="line"/>
      <point x="649" y="1120" type="line"/>
      <point x="649" y="690" type="line"/>
      <point x="381" y="690" type="line"/>
      <point x="381" y="1120" type="line"/>
      <point x="115" y="1120" type="line"/>
      <point x="115" y="0" type="line"/>
      <point x="381" y="0" type="line"/>
      <point x="381" y="463" type="line"/>
      <point x="649" y="463" type="line"/>
      <point x="649" y="0" type="line"/>
      <point x="915" y="0" type="line"/>
      <point x="915" y="389" type="line"/>
      <point x="936" y="397"/>
      <point x="956" y="401"/>
      <point x="979" y="401" type="curve" smooth="yes"/>
      <point x="1100" y="401"/>
      <point x="1159" y="287"/>
      <point x="1159" y="72" type="curve" smooth="yes"/>
      <point x="1159" y="-162"/>
      <point x="1106" y="-268"/>
      <point x="993" y="-268" type="curve" smooth="yes"/>
      <point x="940" y="-268"/>
      <point x="893" y="-252"/>
      <point x="850" y="-219" type="curve"/>
      <point x="850" y="-444" type="line"/>
      <point x="909" y="-477"/>
      <point x="975" y="-494"/>
    </contour>
  </outline>
</glyph>
<glyph name="uni052E" format="2">
  <advance width="1292"/>
  <unicode hex="052E"/>
  <anchor x="645" y="-422" name="bottom"/>
  <anchor x="645" y="1462" name="top"/>
  <outline>
    <contour>
      <point x="850" y="0" type="line"/>
      <point x="987" y="0" type="line"/>
      <point x="987" y="-422" type="line"/>
      <point x="1253" y="-422" type="line"/>
      <point x="1253" y="238" type="line"/>
      <point x="969" y="238" type="line"/>
    </contour>
    <component base="afii10029"/>
  </outline>
</glyph>
<glyph name="uni1AB4" format="2">
  <unicode hex="1AB4"/>
  <anchor x="0" y="1120" name="_top"/>
  <anchor x="4" y="1831" name="top"/>
  <outline>
    <contour>
      <point x="-311" y="1397" type="curve" smooth="yes"/>
      <point x="-311" y="1315"/>
      <point x="-262" y="1270"/>
      <point x="-188" y="1270" type="curve" smooth="yes"/>
      <point x="-113" y="1270"/>
      <point x="-63" y="1317"/>
      <point x="-63" y="1397" type="curve" smooth="yes"/>
      <point x="-63" y="1475"/>
      <point x="-113" y="1522"/>
      <point x="-188" y="1522" type="curve" smooth="yes"/>
      <point x="-262" y="1522"/>
      <point x="-311" y="1477"/>
    </contour>
    <contour>
      <point x="61" y="1397" type="curve" smooth="yes"/>
      <point x="61" y="1317"/>
      <point x="111" y="1270"/>
      <point x="186" y="1270" type="curve" smooth="yes"/>
      <point x="262" y="1270"/>
      <point x="311" y="1317"/>
      <point x="311" y="1397" type="curve" smooth="yes"/>
      <point x="311" y="1475"/>
      <point x="262" y="1522"/>
      <point x="186" y="1522" type="curve" smooth="yes"/>
      <point x="111" y="1522"/>
      <point x="61" y="1477"/>
    </contour>
    <contour>
      <point x="-121" y="1708" type="curve" smooth="yes"/>
      <point x="-121" y="1626"/>
      <point x="-74" y="1581"/>
      <point x="2" y="1581" type="curve" smooth="yes"/>
      <point x="80" y="1581"/>
      <point x="129" y="1628"/>
      <point x="129" y="1708" type="curve" smooth="yes"/>
      <point x="129" y="1786"/>
      <point x="80" y="1831"/>
      <point x="2" y="1831" type="curve" smooth="yes"/>
      <point x="-72" y="1831"/>
      <point x="-121" y="1788"/>
    </contour>
  </outline>
</glyph>
<glyph name="uni1AB5" format="2">
  <unicode hex="1AB5"/>
  <anchor x="-2" y="0" name="_bottom"/>
  <anchor x="4" y="-530" name="bottom"/>
  <outline>
    <contour>
      <point x="-39" y="-174" type="line"/>
      <point x="-127" y="-86" type="line"/>
      <point x="-252" y="-213" type="line"/>
      <point x="-375" y="-88" type="line"/>
      <point x="-471" y="-186" type="line"/>
      <point x="-346" y="-309" type="line"/>
      <point x="-477" y="-442" type="line"/>
      <point x="-389" y="-530" type="line"/>
      <point x="-258" y="-397" type="line"/>
      <point x="-131" y="-524" type="line"/>
      <point x="-35" y="-428" type="line"/>
      <point x="-162" y="-301" type="line"/>
    </contour>
    <contour>
      <point x="471" y="-182" type="line"/>
      <point x="375" y="-86" type="line"/>
      <point x="250" y="-213" type="line"/>
      <point x="127" y="-88" type="line"/>
      <point x="39" y="-178" type="line"/>
      <point x="164" y="-301" type="line"/>
      <point x="33" y="-434" type="line"/>
      <point x="127" y="-530" type="line"/>
      <point x="260" y="-397" type="line"/>
      <point x="385" y="-524" type="line"/>
      <point x="475" y="-434" type="line"/>
      <point x="346" y="-309" type="line"/>
    </contour>
  </outline>
</glyph>
<glyph name="uni1C86" format="2">
  <advance width="963"/>
  <unicode hex="1C86"/>
  <anchor x="481" y="0" name="bottom"/>
  <anchor x="164" y="1556" name="top"/>
  <outline>
    <contour>
      <point x="420" y="1556" type="line"/>
      <point x="-82" y="1556" type="line"/>
      <point x="-82" y="1321" type="line"/>
      <point x="154" y="1321" type="line"/>
      <point x="154" y="0" type="line"/>
      <point x="516" y="0" type="line" smooth="yes"/>
      <point x="764" y="0"/>
      <point x="905" y="115"/>
      <point x="905" y="356" type="curve" smooth="yes"/>
      <point x="905" y="590"/>
      <point x="766" y="694"/>
      <point x="489" y="694" type="curve" smooth="yes"/>
      <point x="420" y="694" type="line"/>
    </contour>
    <contour>
      <point x="496" y="492" type="line"/>
      <point x="596" y="492"/>
      <point x="639" y="440"/>
      <point x="639" y="344" type="curve" smooth="yes"/>
      <point x="639" y="252"/>
      <point x="590" y="203"/>
      <point x="498" y="203" type="curve" smooth="yes"/>
      <point x="420" y="203" type="line"/>
      <point x="420" y="492" type="line"/>
    </contour>
  </outline>
</glyph>
<glyph name="uni1D2A" format="2">
  <advance width="1356"/>
  <unicode hex="1D2A"/>
  <outline>
    <contour>
      <point x="1255" y="1120" type="line"/>
      <point x="989" y="1120" type="line"/>
      <point x="989" y="727" type="line" smooth="yes"/>
      <point x="989" y="592"/>
      <point x="942" y="526"/>
      <point x="809" y="518" type="curve"/>
      <point x="809" y="1120" type="line"/>
      <point x="549" y="1120" type="line"/>
      <point x="549" y="518" type="line"/>
      <point x="416" y="526"/>
      <point x="369" y="592"/>
      <point x="369" y="727" type="curve" smooth="yes"/>
      <point x="369" y="1120" type="line"/>
      <point x="102" y="1120" type="line"/>
      <point x="102" y="684" type="line" smooth="yes"/>
      <point x="102" y="420"/>
      <point x="254" y="307"/>
      <point x="549" y="299" type="curve"/>
      <point x="549" y="0" type="line"/>
      <point x="809" y="0" type="line"/>
      <point x="809" y="299" type="line"/>
      <point x="1102" y="307"/>
      <point x="1255" y="420"/>
      <point x="1255" y="684" type="curve" smooth="yes"/>
    </contour>
  </outline>
</glyph>
<glyph name="uni1D83" format="2">
  <advance width="1272"/>
  <unicode hex="1D83"/>
  <outline>
    <contour>
      <point x="868" y="225" type="line"/>
      <point x="866" y="0" type="line"/>
      <point x="1053" y="0" type="line"/>
      <point x="1053" y="-125" type="line" smooth="yes"/>
      <point x="1053" y="-221"/>
      <point x="1032" y="-262"/>
      <point x="979" y="-262" type="curve" smooth="yes"/>
      <point x="958" y="-262"/>
      <point x="936" y="-256"/>
      <point x="913" y="-244" type="curve"/>
      <point x="913" y="-446" type="line"/>
      <point x="948" y="-461"/>
      <point x="995" y="-467"/>
      <point x="1061" y="-467" type="curve" smooth="yes"/>
      <point x="1221" y="-467"/>
      <point x="1294" y="-346"/>
      <point x="1294" y="-104" type="curve" smooth="yes"/>
      <point x="1294" y="225" type="line"/>
    </contour>
    <component base="g.salt"/>
  </outline>
</glyph>
<glyph name="uni1D85" format="2">
  <advance width="516"/>
  <unicode hex="1D85"/>
  <anchor x="281" y="-475" name="bottom"/>
  <anchor x="276" y="1559" name="top"/>
  <outline>
    <contour>
      <point x="381" y="1556" type="line"/>
      <point x="115" y="1556" type="line"/>
      <point x="115" y="0" type="line"/>
      <point x="246" y="0" type="line"/>
      <point x="246" y="-113" type="line" smooth="yes"/>
      <point x="246" y="-211"/>
      <point x="223" y="-252"/>
      <point x="162" y="-252" type="curve" smooth="yes"/>
      <point x="139" y="-252"/>
      <point x="115" y="-248"/>
      <point x="90" y="-238" type="curve"/>
      <point x="90" y="-438" type="line"/>
      <point x="125" y="-451"/>
      <point x="176" y="-459"/>
      <point x="244" y="-459" type="curve" smooth="yes"/>
      <point x="408" y="-459"/>
      <point x="483" y="-367"/>
      <point x="483" y="-141" type="curve" smooth="yes"/>
      <point x="483" y="225" type="line"/>
      <point x="381" y="225" type="line"/>
    </contour>
  </outline>
</glyph>
<glyph name="uni1D95" format="2">
  <advance width="1130"/>
  <unicode hex="1D95"/>
  <outline>
    <contour>
      <point x="1098" y="-459" type="curve" smooth="yes"/>
      <point x="1169" y="-459"/>
      <point x="1219" y="-451"/>
      <point x="1255" y="-438" type="curve"/>
      <point x="1255" y="-240" type="line"/>
      <point x="1231" y="-250"/>
      <point x="1206" y="-256"/>
      <point x="1184" y="-256" type="curve" smooth="yes"/>
      <point x="1122" y="-256"/>
      <point x="1100" y="-215"/>
      <point x="1100" y="-117" type="curve" smooth="yes"/>
      <point x="1100" y="635" type="line"/>
      <point x="860" y="635" type="line"/>
      <point x="844" y="946"/>
      <point x="713" y="1139"/>
      <point x="426" y="1139" type="curve" smooth="yes"/>
      <point x="309" y="1139"/>
      <point x="209" y="1114"/>
      <point x="119" y="1061" type="curve"/>
      <point x="119" y="840" type="line"/>
      <point x="215" y="899"/>
      <point x="295" y="922"/>
      <point x="389" y="922" type="curve" smooth="yes"/>
      <point x="532" y="922"/>
      <point x="600" y="831"/>
      <point x="600" y="635" type="curve"/>
      <point x="68" y="635" type="line"/>
      <point x="68" y="483" type="line" smooth="yes"/>
      <point x="68" y="176"/>
      <point x="207" y="-20"/>
      <point x="459" y="-20" type="curve" smooth="yes"/>
      <point x="696" y="-20"/>
      <point x="831" y="145"/>
      <point x="858" y="449" type="curve"/>
      <point x="858" y="-141" type="line" smooth="yes"/>
      <point x="858" y="-367"/>
      <point x="936" y="-459"/>
    </contour>
    <contour>
      <point x="453" y="188" type="curve" smooth="yes"/>
      <point x="365" y="188"/>
      <point x="315" y="285"/>
      <point x="315" y="442" type="curve"/>
      <point x="600" y="442" type="line"/>
      <point x="596" y="262"/>
      <point x="539" y="188"/>
    </contour>
  </outline>
</glyph>
<glyph name="uni1FCF" format="2">
  <advance width="1055"/>
  <unicode hex="1FCF"/>
  <anchor x="537" y="1120" name="_top"/>
  <anchor x="537" y="1792" name="top"/>
  <outline>
    <contour>
      <point x="227" y="1546" type="curve"/>
      <point x="344" y="1546" type="line"/>
      <point x="358" y="1620"/>
      <point x="389" y="1642"/>
      <point x="412" y="1642" type="curve" smooth="yes"/>
      <point x="483" y="1642"/>
      <point x="571" y="1548"/>
      <point x="664" y="1548" type="curve" smooth="yes"/>
      <point x="750" y="1548"/>
      <point x="823" y="1626"/>
      <point x="838" y="1792" type="curve"/>
      <point x="719" y="1792" type="line"/>
      <point x="707" y="1720"/>
      <point x="676" y="1696"/>
      <point x="653" y="1696" type="curve" smooth="yes"/>
      <point x="578" y="1696"/>
      <point x="485" y="1790"/>
      <point x="406" y="1790" type="curve" smooth="yes"/>
      <point x="309" y="1790"/>
      <point x="242" y="1716"/>
    </contour>
    <contour>
      <point x="420" y="1198" type="line"/>
      <point x="557" y="1200"/>
      <point x="641" y="1278"/>
      <point x="641" y="1389" type="curve" smooth="yes"/>
      <point x="641" y="1479"/>
      <point x="598" y="1528"/>
      <point x="514" y="1528" type="curve" smooth="yes"/>
      <point x="444" y="1528"/>
      <point x="412" y="1489"/>
      <point x="412" y="1436" type="curve" smooth="yes"/>
      <point x="412" y="1366"/>
      <point x="479" y="1372"/>
      <point x="485" y="1337" type="curve"/>
      <point x="485" y="1305"/>
      <point x="471" y="1276"/>
      <point x="420" y="1272" type="curve"/>
    </contour>
  </outline>
</glyph>
<glyph name="uni1FDD" format="2">
  <advance width="1110"/>
  <unicode hex="1FDD"/>
  <anchor x="543" y="1120" name="_top"/>
  <anchor x="551" y="1587" name="top"/>
  <outline>
    <contour>
      <point x="698" y="1253" type="curve"/>
      <point x="819" y="1253" type="line"/>
      <point x="819" y="1278" type="line"/>
      <point x="795" y="1354"/>
      <point x="768" y="1468"/>
      <point x="756" y="1567" type="curve"/>
      <point x="539" y="1567" type="line"/>
      <point x="539" y="1538" type="line"/>
      <point x="571" y="1450"/>
      <point x="637" y="1343"/>
    </contour>
    <contour>
      <point x="494" y="1237" type="curve"/>
      <point x="494" y="1313" type="line"/>
      <point x="442" y="1317"/>
      <point x="426" y="1346"/>
      <point x="426" y="1382" type="curve"/>
      <point x="434" y="1417"/>
      <point x="504" y="1411"/>
      <point x="504" y="1491" type="curve" smooth="yes"/>
      <point x="504" y="1546"/>
      <point x="469" y="1587"/>
      <point x="399" y="1587" type="curve" smooth="yes"/>
      <point x="317" y="1587"/>
      <point x="274" y="1536"/>
      <point x="274" y="1438" type="curve" smooth="yes"/>
      <point x="274" y="1321"/>
      <point x="356" y="1239"/>
    </contour>
  </outline>
</glyph>
<glyph name="quotedblleft" format="2">
  <advance width="911"/>
  <unicode hex="201C"/>
  <outline>
    <contour>
      <point x="846" y="1462" type="curve"/>
      <point x="629" y="1462" type="line"/>
      <point x="569" y="1313"/>
      <point x="522" y="1137"/>
      <point x="487" y="932" type="curve"/>
      <point x="500" y="909" type="line"/>
      <point x="766" y="909" type="line"/>
      <point x="776" y="1077"/>
      <point x="809" y="1284"/>
    </contour>
    <contour>
      <point x="428" y="1462" type="curve"/>
      <point x="211" y="1462" type="line"/>
      <point x="150" y="1313"/>
      <point x="102" y="1137"/>
      <point x="68" y="932" type="curve"/>
      <point x="80" y="909" type="line"/>
      <point x="346" y="909" type="line"/>
      <point x="358" y="1059"/>
      <point x="389" y="1292"/>
    </contour>
  </outline>
</glyph>
<glyph name="daggerdbl" format="2">
  <advance width="985"/>
  <unicode hex="2021"/>
  <outline>
    <contour>
      <point x="584" y="553" type="line"/>
      <point x="623" y="786" type="line"/>
      <point x="584" y="1004" type="line"/>
      <point x="885" y="973" type="line"/>
      <point x="885" y="1206" type="line"/>
      <point x="584" y="1176" type="line"/>
      <point x="635" y="1556" type="line"/>
      <point x="365" y="1556" type="line"/>
      <point x="414" y="1176" type="line"/>
      <point x="98" y="1206" type="line"/>
      <point x="98" y="973" type="line"/>
      <point x="414" y="1004" type="line"/>
      <point x="373" y="786" type="line"/>
      <point x="414" y="553" type="line"/>
      <point x="98" y="584" type="line"/>
      <point x="98" y="350" type="line"/>
      <point x="414" y="383" type="line"/>
      <point x="365" y="0" type="line"/>
      <point x="635" y="0" type="line"/>
      <point x="584" y="383" type="line"/>
      <point x="885" y="350" type="line"/>
      <point x="885" y="584" type="line"/>
    </contour>
  </outline>
</glyph>
<glyph name="second" format="2">
  <advance width="920"/>
  <unicode hex="2033"/>
  <outline>
    <contour>
      <point x="518" y="973" type="line"/>
      <point x="709" y="973" type="line"/>
      <point x="961" y="1462" type="line"/>
      <point x="692" y="1462" type="line"/>
    </contour>
    <contour>
      <point x="86" y="973" type="line"/>
      <point x="276" y="973" type="line"/>
      <point x="528" y="1462" type="line"/>
      <point x="260" y="1462" type="line"/>
    </contour>
  </outline>
</glyph>
<glyph name="interrobang" format="2">
  <advance width="756"/>
  <unicode hex="203D"/>
  <outline>
    <contour>
      <point x="213" y="475" type="line"/>
      <point x="434" y="475" type="line"/>
      <point x="434" y="522" type="line" smooth="yes"/>
      <point x="434" y="602"/>
      <point x="446" y="641"/>
      <point x="541" y="737" type="curve" smooth="yes"/>
      <point x="662" y="860"/>
      <point x="723" y="954"/>
      <point x="723" y="1130" type="curve" smooth="yes"/>
      <point x="723" y="1350"/>
      <point x="594" y="1483"/>
      <point x="352" y="1483" type="curve" smooth="yes"/>
      <point x="236" y="1483"/>
      <point x="123" y="1442"/>
      <point x="10" y="1360" type="curve"/>
      <point x="100" y="1165" type="line"/>
      <point x="127" y="1188"/>
      <point x="152" y="1204"/>
      <point x="178" y="1219" type="curve"/>
    </contour>
    <contour>
      <point x="326" y="-23" type="curve" smooth="yes"/>
      <point x="422" y="-23"/>
      <point x="481" y="37"/>
      <point x="481" y="145" type="curve" smooth="yes"/>
      <point x="481" y="256"/>
      <point x="424" y="313"/>
      <point x="326" y="313" type="curve" smooth="yes"/>
      <point x="221" y="313"/>
      <point x="166" y="254"/>
      <point x="166" y="145" type="curve" smooth="yes"/>
      <point x="166" y="37"/>
      <point x="227" y="-23"/>
    </contour>
    <contour>
      <point x="381" y="852" type="curve"/>
      <point x="397" y="1249" type="line"/>
      <point x="459" y="1235"/>
      <point x="498" y="1184"/>
      <point x="498" y="1098" type="curve" smooth="yes"/>
      <point x="498" y="1020"/>
      <point x="473" y="969"/>
      <point x="418" y="903" type="curve" smooth="yes"/>
      <point x="406" y="889"/>
      <point x="387" y="864"/>
    </contour>
  </outline>
</glyph>
<glyph name="undertie" format="2">
  <advance width="1229"/>
  <unicode hex="203F"/>
  <outline>
    <contour>
      <point x="217" y="-76" type="curve"/>
      <point x="59" y="-123" type="line"/>
      <point x="123" y="-367"/>
      <point x="295" y="-561"/>
      <point x="616" y="-561" type="curve" smooth="yes"/>
      <point x="920" y="-561"/>
      <point x="1104" y="-367"/>
      <point x="1167" y="-123" type="curve"/>
      <point x="1010" y="-76" type="line"/>
      <point x="963" y="-217"/>
      <point x="848" y="-371"/>
      <point x="616" y="-371" type="curve" smooth="yes"/>
      <point x="365" y="-371"/>
      <point x="266" y="-215"/>
    </contour>
  </outline>
</glyph>
<glyph name="blackrightbullet" format="2">
  <advance width="1104"/>
  <unicode hex="204D"/>
  <outline>
    <contour>
      <point x="145" y="82" type="line"/>
      <point x="557" y="82" type="line" smooth="yes"/>
      <point x="831" y="82"/>
      <point x="999" y="207"/>
      <point x="999" y="602" type="curve" smooth="yes"/>
      <point x="999" y="963"/>
      <point x="827" y="1120"/>
      <point x="549" y="1120" type="curve" smooth="yes"/>
      <point x="145" y="1120" type="line"/>
    </contour>
    <contour>
      <point x="311" y="274" type="line"/>
      <point x="311" y="928" type="line"/>
      <point x="487" y="928" type="line"/>
      <point x="487" y="274" type="line"/>
    </contour>
  </outline>
</glyph>
<glyph name="threedotpunctuation" format="2">
  <advance width="1139"/>
  <unicode hex="2056"/>
  <outline>
    <contour>
      <point x="686" y="125" type="curve" smooth="yes"/>
      <point x="686" y="8"/>
      <point x="764" y="-41"/>
      <point x="862" y="-41" type="curve" smooth="yes"/>
      <point x="958" y="-41"/>
      <point x="1034" y="8"/>
      <point x="1034" y="125" type="curve" smooth="yes"/>
      <point x="1034" y="244"/>
      <point x="958" y="291"/>
      <point x="862" y="291" type="curve" smooth="yes"/>
      <point x="764" y="291"/>
      <point x="686" y="244"/>
    </contour>
    <contour>
      <point x="686" y="1335" type="curve" smooth="yes"/>
      <point x="686" y="1219"/>
      <point x="764" y="1169"/>
      <point x="862" y="1169" type="curve" smooth="yes"/>
      <point x="958" y="1169"/>
      <point x="1034" y="1219"/>
      <point x="1034" y="1335" type="curve" smooth="yes"/>
      <point x="1034" y="1456"/>
      <point x="958" y="1501"/>
      <point x="862" y="1501" type="curve" smooth="yes"/>
      <point x="764" y="1501"/>
      <point x="686" y="1456"/>
    </contour>
    <contour>
      <point x="104" y="727" type="curve" smooth="yes"/>
      <point x="104" y="612"/>
      <point x="182" y="563"/>
      <point x="281" y="563" type="curve" smooth="yes"/>
      <point x="377" y="563"/>
      <point x="453" y="612"/>
      <point x="453" y="727" type="curve" smooth="yes"/>
      <point x="453" y="848"/>
      <point x="377" y="895"/>
      <point x="281" y="895" type="curve" smooth="yes"/>
      <point x="182" y="895"/>
      <point x="104" y="848"/>
    </contour>
  </outline>
</glyph>
<glyph name="tricolon" format="2">
  <advance width="530"/>
  <unicode hex="205D"/>
  <outline>
    <contour>
      <point x="104" y="780" type="curve" smooth="yes"/>
      <point x="104" y="664"/>
      <point x="182" y="616"/>
      <point x="281" y="616" type="curve" smooth="yes"/>
      <point x="377" y="616"/>
      <point x="453" y="664"/>
      <point x="453" y="780" type="curve" smooth="yes"/>
      <point x="453" y="901"/>
      <point x="377" y="946"/>
      <point x="281" y="946" type="curve" smooth="yes"/>
      <point x="182" y="946"/>
      <point x="104" y="901"/>
    </contour>
    <contour>
      <point x="100" y="125" type="curve" smooth="yes"/>
      <point x="100" y="8"/>
      <point x="178" y="-41"/>
      <point x="276" y="-41" type="curve" smooth="yes"/>
      <point x="373" y="-41"/>
      <point x="449" y="8"/>
      <point x="449" y="125" type="curve" smooth="yes"/>
      <point x="449" y="244"/>
      <point x="373" y="291"/>
      <point x="276" y="291" type="curve" smooth="yes"/>
      <point x="178" y="291"/>
      <point x="100" y="244"/>
    </contour>
    <contour>
      <point x="102" y="1423" type="curve" smooth="yes"/>
      <point x="102" y="1309"/>
      <point x="180" y="1260"/>
      <point x="279" y="1260" type="curve" smooth="yes"/>
      <point x="375" y="1260"/>
      <point x="451" y="1309"/>
      <point x="451" y="1423" type="curve" smooth="yes"/>
      <point x="451" y="1544"/>
      <point x="375" y="1591"/>
      <point x="279" y="1591" type="curve" smooth="yes"/>
      <point x="180" y="1591"/>
      <point x="102" y="1544"/>
    </contour>
  </outline>
</glyph>
<glyph name="zerosuperior" format="2">
  <advance width="686"/>
  <unicode hex="2070"/>
  <outline>
    <contour>
      <point x="338" y="829" type="curve" smooth="yes"/>
      <point x="541" y="829"/>
      <point x="645" y="989"/>
      <point x="645" y="1292" type="curve" smooth="yes"/>
      <point x="645" y="1585"/>
      <point x="537" y="1749"/>
      <point x="338" y="1749" type="curve" smooth="yes"/>
      <point x="141" y="1749"/>
      <point x="43" y="1597"/>
      <point x="43" y="1292" type="curve" smooth="yes"/>
      <point x="43" y="999"/>
      <point x="147" y="829"/>
    </contour>
    <contour>
      <point x="342" y="1001" type="curve" smooth="yes"/>
      <point x="272" y="1001"/>
      <point x="242" y="1090"/>
      <point x="242" y="1290" type="curve" smooth="yes"/>
      <point x="242" y="1489"/>
      <point x="270" y="1575"/>
      <point x="342" y="1575" type="curve" smooth="yes"/>
      <point x="410" y="1575"/>
      <point x="444" y="1487"/>
      <point x="444" y="1290" type="curve" smooth="yes"/>
      <point x="444" y="1090"/>
      <point x="410" y="1001"/>
    </contour>
  </outline>
</glyph>
<glyph name="parenleftsuperior" format="2">
  <advance width="498"/>
  <unicode hex="207D"/>
  <outline>
    <contour>
      <point x="76" y="1020" type="curve" smooth="yes"/>
      <point x="76" y="801"/>
      <point x="131" y="596"/>
      <point x="260" y="451" type="curve"/>
      <point x="438" y="451" type="line"/>
      <point x="317" y="606"/>
      <point x="260" y="819"/>
      <point x="260" y="1022" type="curve" smooth="yes"/>
      <point x="260" y="1227"/>
      <point x="317" y="1436"/>
      <point x="440" y="1593" type="curve"/>
      <point x="260" y="1593" type="line"/>
      <point x="131" y="1442"/>
      <point x="76" y="1239"/>
    </contour>
  </outline>
</glyph>
<glyph name="uni20A1" format="2">
  <advance width="961"/>
  <unicode hex="20A1"/>
  <outline>
    <contour>
      <point x="541" y="-117" type="line"/>
      <point x="635" y="-117" type="line"/>
      <point x="655" y="61" type="line"/>
      <point x="733" y="70"/>
      <point x="805" y="90"/>
      <point x="866" y="123" type="curve"/>
      <point x="866" y="369" type="line"/>
      <point x="809" y="338"/>
      <point x="750" y="315"/>
      <point x="682" y="303" type="curve"/>
      <point x="778" y="1128" type="line"/>
      <point x="797" y="1120"/>
      <point x="815" y="1110"/>
      <point x="831" y="1098" type="curve"/>
      <point x="911" y="1325" type="line"/>
      <point x="877" y="1343"/>
      <point x="840" y="1360"/>
      <point x="805" y="1372" type="curve"/>
      <point x="825" y="1554" type="line"/>
      <point x="729" y="1554" type="line"/>
      <point x="711" y="1399" type="line"/>
      <point x="678" y="1405"/>
      <point x="643" y="1407"/>
      <point x="608" y="1409" type="curve"/>
      <point x="627" y="1554" type="line"/>
      <point x="530" y="1554" type="line"/>
      <point x="514" y="1403" type="line"/>
      <point x="219" y="1362"/>
      <point x="68" y="1102"/>
      <point x="68" y="727" type="curve" smooth="yes"/>
      <point x="68" y="393"/>
      <point x="170" y="184"/>
      <point x="367" y="102" type="curve"/>
      <point x="342" y="-117" type="line"/>
      <point x="436" y="-117" type="line"/>
      <point x="459" y="72" type="line"/>
      <point x="492" y="63"/>
      <point x="524" y="59"/>
      <point x="561" y="57" type="curve"/>
    </contour>
    <contour>
      <point x="401" y="403" type="line"/>
      <point x="352" y="473"/>
      <point x="328" y="582"/>
      <point x="328" y="725" type="curve" smooth="yes"/>
      <point x="328" y="926"/>
      <point x="375" y="1079"/>
      <point x="485" y="1139" type="curve"/>
    </contour>
    <contour>
      <point x="588" y="299" type="line"/>
      <point x="551" y="301"/>
      <point x="516" y="311"/>
      <point x="487" y="326" type="curve"/>
      <point x="586" y="1169" type="line"/>
      <point x="592" y="1169"/>
      <point x="598" y="1169"/>
      <point x="606" y="1169" type="curve" smooth="yes"/>
      <point x="635" y="1169"/>
      <point x="662" y="1167"/>
      <point x="688" y="1161" type="curve"/>
    </contour>
  </outline>
</glyph>
<glyph name="uni20B5" format="2">
  <advance width="1018"/>
  <unicode hex="20B5"/>
  <outline>
    <contour>
      <point x="680" y="1554" type="line"/>
      <point x="530" y="1554" type="line"/>
      <point x="530" y="1405" type="line"/>
      <point x="223" y="1370"/>
      <point x="68" y="1106"/>
      <point x="68" y="727" type="curve" smooth="yes"/>
      <point x="68" y="305"/>
      <point x="229" y="80"/>
      <point x="530" y="57" type="curve"/>
      <point x="530" y="-117" type="line"/>
      <point x="680" y="-117" type="line"/>
      <point x="680" y="66" type="line"/>
      <point x="750" y="74"/>
      <point x="811" y="94"/>
      <point x="866" y="123" type="curve"/>
      <point x="866" y="369" type="line"/>
      <point x="807" y="338"/>
      <point x="745" y="313"/>
      <point x="680" y="303" type="curve"/>
      <point x="680" y="1161" type="line"/>
      <point x="733" y="1151"/>
      <point x="782" y="1128"/>
      <point x="831" y="1098" type="curve"/>
      <point x="911" y="1325" type="line"/>
      <point x="836" y="1366"/>
      <point x="758" y="1391"/>
      <point x="680" y="1403" type="curve"/>
    </contour>
    <contour>
      <point x="530" y="1155" type="curve"/>
      <point x="530" y="311" type="line"/>
      <point x="412" y="352"/>
      <point x="344" y="489"/>
      <point x="344" y="725" type="curve"/>
      <point x="344" y="948"/>
      <point x="403" y="1112"/>
    </contour>
  </outline>
</glyph>
<glyph name="uni20BE" format="2">
  <advance width="989"/>
  <unicode hex="20BE"/>
  <outline>
    <contour>
      <point x="74" y="211" type="line"/>
      <point x="74" y="0" type="line"/>
      <point x="920" y="0" type="line"/>
      <point x="920" y="211" type="line"/>
    </contour>
    <contour>
      <point x="647" y="211" type="line"/>
      <point x="475" y="211"/>
      <point x="358" y="438"/>
      <point x="358" y="735" type="curve" smooth="yes"/>
      <point x="358" y="1061"/>
      <point x="455" y="1219"/>
      <point x="647" y="1219" type="curve"/>
      <point x="737" y="1219"/>
      <point x="817" y="1184"/>
      <point x="897" y="1141" type="curve"/>
      <point x="897" y="1391" type="line"/>
      <point x="813" y="1438"/>
      <point x="717" y="1462"/>
      <point x="606" y="1462" type="curve" smooth="yes"/>
      <point x="276" y="1462"/>
      <point x="88" y="1212"/>
      <point x="88" y="733" type="curve" smooth="yes"/>
      <point x="88" y="340"/>
      <point x="313" y="102"/>
      <point x="649" y="102" type="curve"/>
    </contour>
    <contour>
      <point x="449" y="1669" type="line"/>
      <point x="449" y="846" type="line"/>
      <point x="563" y="846" type="line"/>
      <point x="563" y="1669" type="line"/>
    </contour>
    <contour>
      <point x="686" y="1669" type="line"/>
      <point x="686" y="846" type="line"/>
      <point x="801" y="846" type="line"/>
      <point x="801" y="1669" type="line"/>
    </contour>
  </outline>
</glyph>
<glyph name="planckconstantovertwopi" format="2">
  <advance width="944"/>
  <unicode hex="210F"/>
  <outline>
    <contour>
      <point x="23" y="0" type="line"/>
      <point x="287" y="0" type="line"/>
      <point x="412" y="590" type="line" smooth="yes"/>
      <point x="455" y="791"/>
      <point x="510" y="866"/>
      <point x="592" y="866" type="curve" smooth="yes"/>
      <point x="635" y="866"/>
      <point x="653" y="829"/>
      <point x="653" y="782" type="curve" smooth="yes"/>
      <point x="653" y="739"/>
      <point x="647" y="694"/>
      <point x="637" y="647" type="curve" smooth="yes"/>
      <point x="500" y="0" type="line"/>
      <point x="764" y="0" type="line"/>
      <point x="913" y="709" type="line" smooth="yes"/>
      <point x="924" y="760"/>
      <point x="932" y="815"/>
      <point x="932" y="858" type="curve" smooth="yes"/>
      <point x="932" y="1010"/>
      <point x="852" y="1106"/>
      <point x="713" y="1106" type="curve" smooth="yes"/>
      <point x="610" y="1106"/>
      <point x="539" y="1057"/>
      <point x="479" y="967" type="curve"/>
      <point x="473" y="967" type="line"/>
      <point x="494" y="1018"/>
      <point x="512" y="1075"/>
      <point x="524" y="1128" type="curve" smooth="yes"/>
      <point x="541" y="1204" type="line"/>
      <point x="715" y="1204" type="line"/>
      <point x="756" y="1397" type="line"/>
      <point x="582" y="1397" type="line"/>
      <point x="616" y="1556" type="line"/>
      <point x="352" y="1556" type="line"/>
      <point x="317" y="1397" type="line"/>
      <point x="205" y="1397" type="line"/>
      <point x="164" y="1204" type="line"/>
      <point x="276" y="1204" type="line"/>
    </contour>
  </outline>
</glyph>
<glyph name="response" format="2">
  <advance width="1049"/>
  <unicode hex="211F"/>
  <outline>
    <contour>
      <point x="655" y="1563" type="line"/>
      <point x="217" y="-297" type="line"/>
      <point x="344" y="-297" type="line"/>
      <point x="805" y="1649" type="line"/>
      <point x="340" y="1767" type="line"/>
      <point x="307" y="1642" type="line"/>
    </contour>
    <component base="R"/>
  </outline>
</glyph>
<glyph name="lozenge" format="2">
  <advance width="1186"/>
  <unicode hex="25CA"/>
  <outline>
    <contour>
      <point x="535" y="0" type="line"/>
      <point x="649" y="0" type="line"/>
      <point x="1102" y="737" type="line"/>
      <point x="649" y="1473" type="line"/>
      <point x="535" y="1473" type="line"/>
      <point x="84" y="735" type="line"/>
    </contour>
    <contour>
      <point x="592" y="324" type="line"/>
      <point x="346" y="735" type="line"/>
      <point x="592" y="1147" type="line"/>
      <point x="838" y="735" type="line"/>
    </contour>
  </outline>
</glyph>
<glyph name="uni2C72" format="2">
  <advance width="1700"/>
  <unicode hex="2C72"/>
  <anchor x="840" y="0" name="bottom"/>
  <anchor x="840" y="1462" name="top"/>
  <outline>
    <contour>
      <point x="1542" y="1475" type="curve"/>
      <point x="1382" y="1475"/>
      <point x="1288" y="1380"/>
      <point x="1243" y="1130" type="curve"/>
      <point x="1167" y="723" type="line"/>
      <point x="1145" y="598"/>
      <point x="1122" y="446"/>
      <point x="1112" y="326" type="curve"/>
      <point x="1096" y="461"/>
      <point x="1073" y="614"/>
      <point x="1051" y="721" type="curve"/>
      <point x="911" y="1462" type="line"/>
      <point x="676" y="1462" type="line"/>
      <point x="526" y="719" type="line"/>
      <point x="508" y="621"/>
      <point x="481" y="463"/>
      <point x="465" y="326" type="curve"/>
      <point x="453" y="444"/>
      <point x="430" y="606"/>
      <point x="410" y="723" type="curve"/>
      <point x="276" y="1462" type="line"/>
      <point x="2" y="1462" type="line"/>
      <point x="291" y="0" type="line"/>
      <point x="610" y="0" type="line"/>
      <point x="745" y="698" type="line" smooth="yes"/>
      <point x="766" y="809"/>
      <point x="782" y="950"/>
      <point x="793" y="1053" type="curve"/>
      <point x="805" y="915"/>
      <point x="823" y="793"/>
      <point x="840" y="696" type="curve" smooth="yes"/>
      <point x="975" y="0" type="line"/>
      <point x="1296" y="0" type="line"/>
      <point x="1503" y="1051" type="line"/>
      <point x="1532" y="1198"/>
      <point x="1569" y="1233"/>
      <point x="1624" y="1233" type="curve" smooth="yes"/>
      <point x="1642" y="1233"/>
      <point x="1663" y="1227"/>
      <point x="1683" y="1219" type="curve"/>
      <point x="1683" y="1446" type="line"/>
      <point x="1645" y="1464"/>
      <point x="1597" y="1475"/>
    </contour>
  </outline>
</glyph>
<glyph name="rightverticalbarwithquill" format="2">
  <advance width="1128"/>
  <unicode hex="2E21"/>
  <outline>
    <contour>
      <point x="633" y="-492" type="line"/>
      <point x="811" y="-492" type="line"/>
      <point x="811" y="1556" type="line"/>
      <point x="633" y="1556" type="line"/>
      <point x="633" y="612" type="line"/>
      <point x="342" y="612" type="line"/>
      <point x="342" y="451" type="line"/>
      <point x="633" y="451" type="line"/>
    </contour>
  </outline>
</glyph>
<glyph name="uni2E3C" format="2">
  <unicode hex="2E3C"/>
  <outline>
    <contour>
      <point x="223" y="-176" type="line"/>
      <point x="129" y="-80" type="line"/>
      <point x="4" y="-207" type="line"/>
      <point x="-119" y="-82" type="line"/>
      <point x="-221" y="-186" type="line"/>
      <point x="-98" y="-309" type="line"/>
      <point x="-227" y="-442" type="line"/>
      <point x="-133" y="-539" type="line"/>
      <point x="-2" y="-403" type="line"/>
      <point x="123" y="-532" type="line"/>
      <point x="227" y="-428" type="line"/>
      <point x="100" y="-301" type="line"/>
    </contour>
  </outline>
</glyph>
<glyph name="uniA654" format="2">
  <advance width="1649"/>
  <unicode hex="A654"/>
  <outline>
    <contour>
      <point x="90" y="733" type="curve" smooth="yes"/>
      <point x="90" y="270"/>
      <point x="248" y="-20"/>
      <point x="582" y="-20" type="curve" smooth="yes"/>
      <point x="872" y="-20"/>
      <point x="1049" y="209"/>
      <point x="1071" y="639" type="curve"/>
      <point x="1237" y="639" type="line"/>
      <point x="1237" y="0" type="line"/>
      <point x="1518" y="0" type="line"/>
      <point x="1518" y="1462" type="line"/>
      <point x="1237" y="1462" type="line"/>
      <point x="1237" y="881" type="line"/>
      <point x="1067" y="881" type="line"/>
      <point x="1036" y="1278"/>
      <point x="866" y="1485"/>
      <point x="582" y="1485" type="curve" smooth="yes"/>
      <point x="258" y="1485"/>
      <point x="90" y="1225"/>
    </contour>
    <contour>
      <point x="791" y="733" type="curve" smooth="yes"/>
      <point x="791" y="397"/>
      <point x="719" y="227"/>
      <point x="584" y="227" type="curve" smooth="yes"/>
      <point x="446" y="227"/>
      <point x="379" y="391"/>
      <point x="379" y="733" type="curve" smooth="yes"/>
      <point x="379" y="1077"/>
      <point x="449" y="1241"/>
      <point x="584" y="1241" type="curve" smooth="yes"/>
      <point x="721" y="1241"/>
      <point x="791" y="1069"/>
    </contour>
  </outline>
</glyph>
<glyph name="uniA66A" format="2">
  <advance width="1403"/>
  <unicode hex="A66A"/>
  <anchor x="702" y="0" name="bottom"/>
  <anchor x="702" y="1462" name="top"/>
  <outline>
    <contour>
      <point x="702" y="-20" type="curve" smooth="yes"/>
      <point x="1114" y="-20"/>
      <point x="1315" y="268"/>
      <point x="1315" y="733" type="curve" smooth="yes"/>
      <point x="1315" y="1198"/>
      <point x="1114" y="1485"/>
      <point x="702" y="1485" type="curve" smooth="yes"/>
      <point x="301" y="1485"/>
      <point x="88" y="1227"/>
      <point x="88" y="735" type="curve" smooth="yes"/>
      <point x="88" y="272"/>
      <point x="289" y="-20"/>
    </contour>
    <contour>
      <point x="547" y="610" type="curve" smooth="yes"/>
      <point x="614" y="610"/>
      <point x="647" y="653"/>
      <point x="647" y="741" type="curve" smooth="yes"/>
      <point x="647" y="829"/>
      <point x="614" y="872"/>
      <point x="547" y="872" type="curve" smooth="yes"/>
      <point x="475" y="872"/>
      <point x="444" y="829"/>
      <point x="444" y="741" type="curve" smooth="yes"/>
      <point x="444" y="655"/>
      <point x="479" y="610"/>
    </contour>
    <contour>
      <point x="702" y="219" type="curve" smooth="yes"/>
      <point x="477" y="219"/>
      <point x="365" y="397"/>
      <point x="365" y="733" type="curve" smooth="yes"/>
      <point x="365" y="1069"/>
      <point x="473" y="1249"/>
      <point x="702" y="1249" type="curve" smooth="yes"/>
      <point x="928" y="1249"/>
      <point x="1038" y="1075"/>
      <point x="1038" y="733" type="curve" smooth="yes"/>
      <point x="1038" y="389"/>
      <point x="928" y="219"/>
    </contour>
    <contour>
      <point x="848" y="610" type="curve" smooth="yes"/>
      <point x="915" y="610"/>
      <point x="948" y="653"/>
      <point x="948" y="741" type="curve" smooth="yes"/>
      <point x="948" y="829"/>
      <point x="915" y="872"/>
      <point x="848" y="872" type="curve" smooth="yes"/>
      <point x="776" y="872"/>
      <point x="745" y="829"/>
      <point x="745" y="741" type="curve" smooth="yes"/>
      <point x="745" y="655"/>
      <point x="780" y="610"/>
    </contour>
  </outline>
</glyph>
<glyph name="uniA68B" format="2">
  <advance width="1180"/>
  <unicode hex="A68B"/>
  <outline>
    <contour>
      <point x="786" y="1120" type="line"/>
      <point x="27" y="1120" type="line"/>
      <point x="27" y="895" type="line"/>
      <point x="274" y="895" type="line"/>
      <point x="274" y="0" type="line"/>
      <point x="541" y="0" type="line"/>
      <point x="541" y="451" type="line"/>
      <point x="608" y="498"/>
      <point x="674" y="524"/>
      <point x="735" y="524" type="curve" smooth="yes"/>
      <point x="795" y="524"/>
      <point x="827" y="481"/>
      <point x="827" y="391" type="curve" smooth="yes"/>
      <point x="827" y="-115" type="line" smooth="yes"/>
      <point x="827" y="-211"/>
      <point x="801" y="-258"/>
      <point x="739" y="-258" type="curve" smooth="yes"/>
      <point x="713" y="-258"/>
      <point x="684" y="-252"/>
      <point x="653" y="-240" type="curve"/>
      <point x="653" y="-469" type="line"/>
      <point x="686" y="-481"/>
      <point x="754" y="-492"/>
      <point x="797" y="-492" type="curve" smooth="yes"/>
      <point x="989" y="-492"/>
      <point x="1094" y="-356"/>
      <point x="1094" y="-121" type="curve" smooth="yes"/>
      <point x="1094" y="391" type="line" smooth="yes"/>
      <point x="1094" y="635"/>
      <point x="1004" y="750"/>
      <point x="809" y="750" type="curve" smooth="yes"/>
      <point x="725" y="750"/>
      <point x="633" y="717"/>
      <point x="541" y="655" type="curve"/>
      <point x="541" y="895" type="line"/>
      <point x="786" y="895" type="line"/>
    </contour>
  </outline>
</glyph>
<glyph name="uniA696" format="2">
  <advance width="1780"/>
  <unicode hex="A696"/>
  <outline>
    <contour>
      <point x="332" y="-469" type="curve" smooth="yes"/>
      <point x="1321" y="-469" type="line" smooth="yes"/>
      <point x="1653" y="-469"/>
      <point x="1757" y="-303"/>
      <point x="1757" y="-90" type="curve" smooth="yes"/>
      <point x="1757" y="37"/>
      <point x="1700" y="147"/>
      <point x="1577" y="195" type="curve"/>
      <point x="1577" y="1462" type="line"/>
      <point x="1296" y="1462" type="line"/>
      <point x="1296" y="244" type="line"/>
      <point x="993" y="244" type="line"/>
      <point x="993" y="1462" type="line"/>
      <point x="715" y="1462" type="line"/>
      <point x="715" y="244" type="line"/>
      <point x="412" y="244" type="line"/>
      <point x="412" y="1462" type="line"/>
      <point x="133" y="1462" type="line"/>
      <point x="133" y="0" type="line"/>
      <point x="1315" y="0" type="line"/>
      <point x="1446" y="0"/>
      <point x="1503" y="-66"/>
      <point x="1505" y="-156" type="curve" smooth="yes"/>
      <point x="1503" y="-283"/>
      <point x="1432" y="-326"/>
      <point x="1262" y="-326" type="curve" smooth="yes"/>
      <point x="369" y="-326" type="line" smooth="yes"/>
      <point x="313" y="-326"/>
      <point x="291" y="-311"/>
      <point x="291" y="-279" type="curve" smooth="yes"/>
      <point x="291" y="-248"/>
      <point x="307" y="-225"/>
      <point x="360" y="-225" type="curve" smooth="yes"/>
      <point x="1280" y="-225" type="line"/>
      <point x="1280" y="-100" type="line"/>
      <point x="303" y="-100" type="line" smooth="yes"/>
      <point x="178" y="-100"/>
      <point x="106" y="-174"/>
      <point x="106" y="-285" type="curve" smooth="yes"/>
      <point x="106" y="-408"/>
      <point x="184" y="-469"/>
    </contour>
  </outline>
</glyph>
<glyph name="uniA742" format="2">
  <advance width="1047"/>
  <unicode hex="A742"/>
  <anchor x="573" y="0" name="bottom"/>
  <anchor x="578" y="1462" name="top"/>
  <outline>
    <contour>
      <point x="449" y="362" type="line"/>
      <point x="539" y="184" type="line"/>
      <point x="1040" y="436" type="line"/>
      <point x="950" y="614" type="line"/>
    </contour>
    <component base="K"/>
  </outline>
</glyph>
<glyph name="uniA752" format="2">
  <advance width="1233"/>
  <unicode hex="A752"/>
  <outline>
    <contour>
      <point x="614" y="520" type="line"/>
      <point x="614" y="758" type="line"/>
      <point x="377" y="758" type="line"/>
      <point x="92" y="758"/>
      <point x="8" y="618"/>
      <point x="8" y="428" type="curve" smooth="yes"/>
      <point x="8" y="375"/>
      <point x="23" y="332"/>
      <point x="33" y="309" type="curve"/>
      <point x="268" y="309" type="line"/>
      <point x="260" y="330"/>
      <point x="248" y="360"/>
      <point x="248" y="408" type="curve" smooth="yes"/>
      <point x="248" y="469"/>
      <point x="285" y="520"/>
      <point x="369" y="520" type="curve" smooth="yes"/>
    </contour>
    <component base="P" xOffset="229"/>
  </outline>
</glyph>
<glyph name="uniA755" format="2">
  <advance width="1495"/>
  <unicode hex="A755"/>
  <outline>
    <contour>
      <point x="461" y="25" type="curve" smooth="yes"/>
      <point x="559" y="-10"/>
      <point x="672" y="-20"/>
      <point x="809" y="-20" type="curve" smooth="yes"/>
      <point x="1257" y="-20"/>
      <point x="1421" y="213"/>
      <point x="1421" y="594" type="curve" smooth="yes"/>
      <point x="1421" y="973"/>
      <point x="1307" y="1141"/>
      <point x="1096" y="1141" type="curve" smooth="yes"/>
      <point x="989" y="1141"/>
      <point x="905" y="1090"/>
      <point x="852" y="973" type="curve"/>
      <point x="838" y="973" type="line"/>
      <point x="799" y="1120" type="line"/>
      <point x="584" y="1120" type="line"/>
      <point x="584" y="-492" type="line"/>
      <point x="850" y="-492" type="line"/>
      <point x="850" y="588" type="line" smooth="yes"/>
      <point x="850" y="817"/>
      <point x="899" y="915"/>
      <point x="1008" y="915" type="curve" smooth="yes"/>
      <point x="1104" y="915"/>
      <point x="1149" y="829"/>
      <point x="1149" y="598" type="curve" smooth="yes"/>
      <point x="1149" y="315"/>
      <point x="1065" y="211"/>
      <point x="809" y="211" type="curve" smooth="yes"/>
      <point x="700" y="211"/>
      <point x="614" y="217"/>
      <point x="549" y="244" type="curve" smooth="yes"/>
      <point x="451" y="281"/>
      <point x="418" y="358"/>
      <point x="418" y="520" type="curve" smooth="yes"/>
      <point x="418" y="793" type="line" smooth="yes"/>
      <point x="418" y="1038"/>
      <point x="344" y="1141"/>
      <point x="141" y="1141" type="curve" smooth="yes"/>
      <point x="96" y="1141"/>
      <point x="43" y="1128"/>
      <point x="8" y="1120" type="curve"/>
      <point x="8" y="907" type="line"/>
      <point x="23" y="911"/>
      <point x="49" y="915"/>
      <point x="72" y="915" type="curve" smooth="yes"/>
      <point x="133" y="915"/>
      <point x="154" y="877"/>
      <point x="154" y="807" type="curve" smooth="yes"/>
      <point x="154" y="530" type="line" smooth="yes"/>
      <point x="154" y="258"/>
      <point x="246" y="98"/>
    </contour>
  </outline>
</glyph>
<glyph name="uniA756" format="2">
  <advance width="1214"/>
  <unicode hex="A756"/>
  <outline>
    <contour>
      <point x="465" y="-188" type="line"/>
      <point x="530" y="-346" type="line"/>
      <point x="1171" y="-92" type="line"/>
      <point x="1104" y="68" type="line"/>
    </contour>
    <component base="Q"/>
  </outline>
</glyph>
<glyph name="uniA76B" format="2">
  <advance width="897"/>
  <unicode hex="A76B"/>
  <outline>
    <contour>
      <point x="565" y="-25" type="curve" smooth="yes"/>
      <point x="565" y="-170"/>
      <point x="496" y="-252"/>
      <point x="342" y="-252" type="curve" smooth="yes"/>
      <point x="250" y="-252"/>
      <point x="137" y="-221"/>
      <point x="33" y="-152" type="curve"/>
      <point x="33" y="-416" type="line"/>
      <point x="150" y="-471"/>
      <point x="244" y="-492"/>
      <point x="371" y="-492" type="curve" smooth="yes"/>
      <point x="662" y="-492"/>
      <point x="836" y="-309"/>
      <point x="836" y="-23" type="curve" smooth="yes"/>
      <point x="836" y="184"/>
      <point x="741" y="315"/>
      <point x="559" y="356" type="curve"/>
      <point x="559" y="365" type="line"/>
      <point x="721" y="428"/>
      <point x="807" y="565"/>
      <point x="807" y="735" type="curve" smooth="yes"/>
      <point x="807" y="997"/>
      <point x="662" y="1139"/>
      <point x="426" y="1139" type="curve" smooth="yes"/>
      <point x="268" y="1139"/>
      <point x="154" y="1098"/>
      <point x="33" y="991" type="curve"/>
      <point x="141" y="791" type="line"/>
      <point x="221" y="864"/>
      <point x="293" y="899"/>
      <point x="373" y="899" type="curve" smooth="yes"/>
      <point x="479" y="899"/>
      <point x="537" y="838"/>
      <point x="537" y="721" type="curve" smooth="yes"/>
      <point x="537" y="565"/>
      <point x="446" y="465"/>
      <point x="276" y="465" type="curve" smooth="yes"/>
      <point x="201" y="465" type="line"/>
      <point x="201" y="225" type="line"/>
      <point x="283" y="225" type="line" smooth="yes"/>
      <point x="481" y="225"/>
      <point x="565" y="139"/>
    </contour>
  </outline>
</glyph>
<glyph name="uniA773" format="2">
  <advance width="1905"/>
  <unicode hex="A773"/>
  <outline>
    <contour>
      <point x="1397" y="0" type="line"/>
      <point x="1894" y="0" type="line"/>
      <point x="1894" y="225" type="line"/>
      <point x="1397" y="225" type="line"/>
    </contour>
    <contour>
      <point x="1655" y="557" type="line"/>
      <point x="1384" y="-322" type="line"/>
      <point x="1573" y="-322" type="line"/>
      <point x="1841" y="557" type="line"/>
    </contour>
    <component base="m"/>
  </outline>
</glyph>
<glyph name="uniA789" format="2">
  <advance width="532"/>
  <unicode hex="A789"/>
  <outline>
    <contour>
      <point x="109" y="305" type="curve" smooth="yes"/>
      <point x="109" y="199"/>
      <point x="168" y="137"/>
      <point x="268" y="137" type="curve" smooth="yes"/>
      <point x="362" y="137"/>
      <point x="422" y="197"/>
      <point x="422" y="305" type="curve" smooth="yes"/>
      <point x="422" y="416"/>
      <point x="367" y="475"/>
      <point x="268" y="475" type="curve" smooth="yes"/>
      <point x="164" y="475"/>
      <point x="109" y="414"/>
    </contour>
    <contour>
      <point x="109" y="979" type="curve" smooth="yes"/>
      <point x="109" y="870"/>
      <point x="168" y="811"/>
      <point x="268" y="811" type="curve" smooth="yes"/>
      <point x="362" y="811"/>
      <point x="422" y="870"/>
      <point x="422" y="979" type="curve" smooth="yes"/>
      <point x="422" y="1087"/>
      <point x="369" y="1147"/>
      <point x="268" y="1147" type="curve" smooth="yes"/>
      <point x="164" y="1147"/>
      <point x="109" y="1087"/>
    </contour>
  </outline>
</glyph>
<glyph name="uniA78D" format="2">
  <advance width="1186"/>
  <unicode hex="A78D"/>
  <outline>
    <contour>
      <point x="1055" y="0" type="line"/>
      <point x="1055" y="1462" type="line"/>
      <point x="774" y="1462" type="line"/>
      <point x="774" y="883" type="line"/>
      <point x="412" y="883" type="line"/>
      <point x="412" y="1462" type="line"/>
      <point x="131" y="1462" type="line"/>
      <point x="131" y="639" type="line"/>
      <point x="774" y="639" type="line"/>
      <point x="774" y="0" type="line"/>
    </contour>
  </outline>
</glyph>
<glyph name="uniA78F" format="2">
  <advance width="594"/>
  <unicode hex="A78F"/>
  <outline>
    <contour>
      <point x="76" y="774" type="curve" smooth="yes"/>
      <point x="76" y="610"/>
      <point x="176" y="541"/>
      <point x="299" y="541" type="curve" smooth="yes"/>
      <point x="420" y="541"/>
      <point x="518" y="610"/>
      <point x="518" y="774" type="curve" smooth="yes"/>
      <point x="518" y="942"/>
      <point x="420" y="1010"/>
      <point x="299" y="1010" type="curve" smooth="yes"/>
      <point x="176" y="1010"/>
      <point x="76" y="942"/>
    </contour>
  </outline>
</glyph>
<glyph name="uniA796" format="2">
  <advance width="1303"/>
  <unicode hex="A796"/>
  <outline>
    <contour>
      <point x="33" y="432" type="curve"/>
      <point x="233" y="432" type="line"/>
      <point x="227" y="451"/>
      <point x="217" y="494"/>
      <point x="217" y="539" type="curve" smooth="yes"/>
      <point x="217" y="608"/>
      <point x="252" y="657"/>
      <point x="328" y="657" type="curve" smooth="yes"/>
      <point x="379" y="657" type="line"/>
      <point x="379" y="870" type="line"/>
      <point x="330" y="870" type="line" smooth="yes"/>
      <point x="102" y="870"/>
      <point x="14" y="723"/>
      <point x="14" y="563" type="curve" smooth="yes"/>
      <point x="14" y="510"/>
      <point x="27" y="457"/>
    </contour>
    <component base="B" xOffset="223"/>
  </outline>
</glyph>
<glyph name="uniA7A0" format="2">
  <advance width="1176"/>
  <unicode hex="A7A0"/>
  <outline>
    <contour>
      <point x="381" y="762" type="curve"/>
      <point x="1135" y="936" type="line"/>
      <point x="1135" y="1118" type="line"/>
      <point x="406" y="948" type="line"/>
      <point x="444" y="1139"/>
      <point x="543" y="1241"/>
      <point x="698" y="1241" type="curve" smooth="yes"/>
      <point x="795" y="1241"/>
      <point x="885" y="1212"/>
      <point x="969" y="1159" type="curve"/>
      <point x="1051" y="1391" type="line"/>
      <point x="954" y="1446"/>
      <point x="829" y="1483"/>
      <point x="688" y="1483" type="curve" smooth="yes"/>
      <point x="346" y="1483"/>
      <point x="141" y="1253"/>
      <point x="98" y="887" type="curve"/>
      <point x="0" y="864" type="line"/>
      <point x="0" y="682" type="line"/>
      <point x="88" y="702" type="line"/>
      <point x="98" y="260"/>
      <point x="283" y="-20"/>
      <point x="635" y="-20" type="curve" smooth="yes"/>
      <point x="786" y="-20"/>
      <point x="932" y="6"/>
      <point x="1071" y="61" type="curve"/>
      <point x="1071" y="750" type="line"/>
      <point x="614" y="750" type="line"/>
      <point x="614" y="512" type="line"/>
      <point x="797" y="512" type="line"/>
      <point x="797" y="246" type="line"/>
      <point x="754" y="231"/>
      <point x="705" y="223"/>
      <point x="653" y="223" type="curve" smooth="yes"/>
      <point x="467" y="223"/>
      <point x="381" y="420"/>
      <point x="381" y="725" type="curve" smooth="yes"/>
      <point x="381" y="737"/>
      <point x="381" y="750"/>
    </contour>
  </outline>
</glyph>
<glyph name="uniA7AE" format="2">
  <advance width="983"/>
  <unicode hex="A7AE"/>
  <anchor x="492" y="0" name="bottom"/>
  <anchor x="492" y="1462" name="top"/>
  <outline>
    <contour>
      <point x="924" y="1462" type="line"/>
      <point x="57" y="1462" type="line"/>
      <point x="57" y="1313" type="line"/>
      <point x="350" y="1266" type="line"/>
      <point x="350" y="197" type="line"/>
      <point x="57" y="150" type="line"/>
      <point x="57" y="0" type="line"/>
      <point x="924" y="0" type="line"/>
      <point x="924" y="150" type="line"/>
      <point x="631" y="197" type="line"/>
      <point x="631" y="1266" type="line"/>
      <point x="924" y="1313" type="line"/>
    </contour>
  </outline>
</glyph>
<glyph name="uniA92E" format="2">
  <advance width="881"/>
  <unicode hex="A92E"/>
  <outline>
    <contour>
      <point x="27" y="408" type="curve"/>
      <point x="164" y="408" type="line"/>
      <point x="215" y="485"/>
      <point x="309" y="537"/>
      <point x="442" y="537" type="curve" smooth="yes"/>
      <point x="580" y="537"/>
      <point x="678" y="489"/>
      <point x="721" y="408" type="curve"/>
      <point x="856" y="408" type="line"/>
      <point x="813" y="618"/>
      <point x="672" y="721"/>
      <point x="442" y="721" type="curve" smooth="yes"/>
      <point x="242" y="721"/>
      <point x="90" y="633"/>
    </contour>
  </outline>
</glyph>
<glyph name="uniAB31" format="2">
  <advance width="1438"/>
  <unicode hex="AB31"/>
  <outline>
    <contour>
      <point x="367" y="-20" type="curve" smooth="yes"/>
      <point x="500" y="-20"/>
      <point x="596" y="31"/>
      <point x="664" y="156" type="curve"/>
      <point x="731" y="41"/>
      <point x="836" y="-20"/>
      <point x="977" y="-20" type="curve" smooth="yes"/>
      <point x="1229" y="-20"/>
      <point x="1368" y="176"/>
      <point x="1368" y="483" type="curve" smooth="yes"/>
      <point x="1368" y="635" type="line"/>
      <point x="836" y="635" type="line"/>
      <point x="836" y="831"/>
      <point x="903" y="922"/>
      <point x="1047" y="922" type="curve" smooth="yes"/>
      <point x="1143" y="922"/>
      <point x="1221" y="899"/>
      <point x="1317" y="840" type="curve"/>
      <point x="1317" y="1061" type="line"/>
      <point x="1227" y="1114"/>
      <point x="1126" y="1139"/>
      <point x="1010" y="1139" type="curve" smooth="yes"/>
      <point x="893" y="1139"/>
      <point x="803" y="1102"/>
      <point x="735" y="1038" type="curve"/>
      <point x="686" y="1106"/>
      <point x="610" y="1141"/>
      <point x="504" y="1141" type="curve" smooth="yes"/>
      <point x="369" y="1141"/>
      <point x="246" y="1108"/>
      <point x="145" y="1047" type="curve"/>
      <point x="219" y="848" type="line"/>
      <point x="309" y="901"/>
      <point x="385" y="926"/>
      <point x="449" y="926" type="curve" smooth="yes"/>
      <point x="535" y="926"/>
      <point x="571" y="866"/>
      <point x="571" y="743" type="curve" smooth="yes"/>
      <point x="571" y="698" type="line"/>
      <point x="432" y="692" type="line" smooth="yes"/>
      <point x="193" y="682"/>
      <point x="59" y="563"/>
      <point x="59" y="330" type="curve" smooth="yes"/>
      <point x="59" y="150"/>
      <point x="150" y="-20"/>
    </contour>
    <contour>
      <point x="430" y="193" type="curve" smooth="yes"/>
      <point x="365" y="193"/>
      <point x="328" y="242"/>
      <point x="328" y="342" type="curve" smooth="yes"/>
      <point x="328" y="453"/>
      <point x="383" y="510"/>
      <point x="496" y="516" type="curve" smooth="yes"/>
      <point x="571" y="520" type="line"/>
      <point x="571" y="418" type="line" smooth="yes"/>
      <point x="571" y="281"/>
      <point x="520" y="193"/>
    </contour>
    <contour>
      <point x="983" y="188" type="curve" smooth="yes"/>
      <point x="895" y="188"/>
      <point x="840" y="262"/>
      <point x="836" y="442" type="curve"/>
      <point x="1120" y="442" type="line"/>
      <point x="1120" y="285"/>
      <point x="1071" y="188"/>
    </contour>
  </outline>
</glyph>
<glyph name="uniAB33" format="2">
  <advance width="936"/>
  <unicode hex="AB33"/>
  <outline>
    <contour>
      <point x="483" y="1139" type="curve" smooth="yes"/>
      <point x="217" y="1139"/>
      <point x="74" y="930"/>
      <point x="74" y="553" type="curve" smooth="yes"/>
      <point x="74" y="188"/>
      <point x="209" y="-20"/>
      <point x="526" y="-20" type="curve" smooth="yes"/>
      <point x="657" y="-20"/>
      <point x="756" y="10"/>
      <point x="819" y="43" type="curve"/>
      <point x="819" y="240" type="line"/>
      <point x="752" y="209"/>
      <point x="680" y="188"/>
      <point x="578" y="188" type="curve" smooth="yes"/>
      <point x="408" y="188"/>
      <point x="328" y="264"/>
      <point x="328" y="555" type="curve" smooth="yes"/>
      <point x="328" y="588"/>
      <point x="330" y="612"/>
      <point x="330" y="639" type="curve"/>
      <point x="870" y="639" type="line"/>
      <point x="870" y="950"/>
      <point x="748" y="1139"/>
    </contour>
    <contour>
      <point x="485" y="952" type="curve" smooth="yes"/>
      <point x="565" y="952"/>
      <point x="612" y="897"/>
      <point x="625" y="768" type="curve"/>
      <point x="342" y="768" type="line"/>
      <point x="362" y="901"/>
      <point x="414" y="952"/>
    </contour>
    <contour>
      <point x="6" y="504" type="line"/>
      <point x="6" y="360" type="line"/>
      <point x="930" y="360" type="line"/>
      <point x="930" y="504" type="line"/>
    </contour>
  </outline>
</glyph>
<glyph name="uniAB43" format="2">
  <advance width="1686"/>
  <unicode hex="AB43"/>
  <outline>
    <contour>
      <point x="1182" y="-20" type="curve" smooth="yes"/>
      <point x="1493" y="-20"/>
      <point x="1610" y="252"/>
      <point x="1610" y="563" type="curve" smooth="yes"/>
      <point x="1610" y="936"/>
      <point x="1444" y="1141"/>
      <point x="1186" y="1141" type="curve" smooth="yes"/>
      <point x="885" y="1141"/>
      <point x="758" y="901"/>
      <point x="758" y="563" type="curve" smooth="yes"/>
      <point x="758" y="246"/>
      <point x="891" y="-20"/>
    </contour>
    <contour>
      <point x="522" y="-20" type="curve" smooth="yes"/>
      <point x="692" y="-20"/>
      <point x="821" y="41"/>
      <point x="967" y="199" type="curve"/>
      <point x="844" y="348" type="line"/>
      <point x="762" y="264"/>
      <point x="674" y="209"/>
      <point x="555" y="209" type="curve" smooth="yes"/>
      <point x="408" y="209"/>
      <point x="344" y="317"/>
      <point x="344" y="555" type="curve" smooth="yes"/>
      <point x="344" y="786"/>
      <point x="408" y="909"/>
      <point x="532" y="909" type="curve" smooth="yes"/>
      <point x="565" y="909"/>
      <point x="598" y="905"/>
      <point x="629" y="895" type="curve"/>
      <point x="690" y="1114" type="line"/>
      <point x="637" y="1130"/>
      <point x="582" y="1141"/>
      <point x="516" y="1141" type="curve" smooth="yes"/>
      <point x="207" y="1141"/>
      <point x="74" y="895"/>
      <point x="74" y="555" type="curve" smooth="yes"/>
      <point x="74" y="156"/>
      <point x="215" y="-20"/>
    </contour>
    <contour>
      <point x="1184" y="205" type="curve" smooth="yes"/>
      <point x="1075" y="205"/>
      <point x="1028" y="326"/>
      <point x="1028" y="559" type="curve" smooth="yes"/>
      <point x="1028" y="801"/>
      <point x="1075" y="915"/>
      <point x="1184" y="915" type="curve" smooth="yes"/>
      <point x="1294" y="915"/>
      <point x="1337" y="799"/>
      <point x="1337" y="563" type="curve" smooth="yes"/>
      <point x="1337" y="324"/>
      <point x="1294" y="205"/>
    </contour>
  </outline>
</glyph>
<glyph name="uniAB45" format="2">
  <advance width="1073"/>
  <unicode hex="AB45"/>
  <outline>
    <contour>
      <point x="537" y="664" type="curve" smooth="yes"/>
      <point x="231" y="664"/>
      <point x="113" y="506"/>
      <point x="113" y="252" type="curve" smooth="yes"/>
      <point x="113" y="0" type="line"/>
      <point x="379" y="0" type="line"/>
      <point x="379" y="197" type="line" smooth="yes"/>
      <point x="379" y="365"/>
      <point x="428" y="426"/>
      <point x="537" y="426" type="curve" smooth="yes"/>
      <point x="645" y="426"/>
      <point x="694" y="365"/>
      <point x="694" y="197" type="curve" smooth="yes"/>
      <point x="694" y="0" type="line"/>
      <point x="963" y="0" type="line"/>
      <point x="963" y="252" type="line" smooth="yes"/>
      <point x="963" y="510"/>
      <point x="844" y="664"/>
    </contour>
    <contour>
      <point x="670" y="537" type="line"/>
      <point x="670" y="1118" type="line"/>
      <point x="403" y="1118" type="line"/>
      <point x="403" y="537" type="line"/>
    </contour>
  </outline>
</glyph>
<glyph name="uniAB52" format="2">
  <advance width="1081"/>
  <unicode hex="AB52"/>
  <anchor x="557" y="2" name="bottom"/>
  <anchor x="563" y="1137" name="top"/>
  <outline>
    <contour>
      <point x="434" y="799" type="line" smooth="yes"/>
      <point x="434" y="1032"/>
      <point x="332" y="1141"/>
      <point x="139" y="1141" type="curve" smooth="yes"/>
      <point x="94" y="1141"/>
      <point x="27" y="1128"/>
      <point x="-4" y="1118" type="curve"/>
      <point x="-4" y="889" type="line"/>
      <point x="25" y="901"/>
      <point x="53" y="907"/>
      <point x="80" y="907" type="curve" smooth="yes"/>
      <point x="141" y="907"/>
      <point x="168" y="860"/>
      <point x="168" y="762" type="curve" smooth="yes"/>
      <point x="168" y="389" type="line" smooth="yes"/>
      <point x="168" y="133"/>
      <point x="266" y="-20"/>
      <point x="465" y="-20" type="curve" smooth="yes"/>
      <point x="580" y="-20"/>
      <point x="662" y="35"/>
      <point x="713" y="143" type="curve"/>
      <point x="727" y="143" type="line"/>
      <point x="758" y="0" type="line"/>
      <point x="969" y="0" type="line"/>
      <point x="969" y="1120" type="line"/>
      <point x="700" y="1120" type="line"/>
      <point x="700" y="551" type="line" smooth="yes"/>
      <point x="700" y="338"/>
      <point x="674" y="217"/>
      <point x="543" y="217" type="curve" smooth="yes"/>
      <point x="465" y="217"/>
      <point x="434" y="301"/>
      <point x="434" y="469" type="curve" smooth="yes"/>
    </contour>
  </outline>
</glyph>
<glyph name="uniAB61" format="2">
  <advance width="1395"/>
  <unicode hex="AB61"/>
  <outline>
    <contour>
      <point x="600" y="473" type="line"/>
      <point x="602" y="686" type="line"/>
      <point x="379" y="686" type="line"/>
      <point x="379" y="1116" type="line"/>
      <point x="109" y="1116" type="line"/>
      <point x="109" y="0" type="line"/>
      <point x="379" y="0" type="line"/>
      <point x="379" y="473" type="line"/>
    </contour>
    <component base="e" xOffset="459"/>
  </outline>
</glyph>
<glyph name="s_t" format="2">
  <advance width="1415"/>
  <unicode hex="FB06"/>
  <anchor x="356" y="0" name="bottom"/>
  <anchor x="1092" y="561" name="center"/>
  <anchor x="397" y="1120" name="top"/>
  <anchor x="1366" y="1356" name="topright"/>
  <outline>
    <contour>
      <point x="1171" y="-20" type="curve" smooth="yes"/>
      <point x="1251" y="-20"/>
      <point x="1321" y="-2"/>
      <point x="1380" y="31" type="curve"/>
      <point x="1380" y="244" type="line"/>
      <point x="1335" y="223"/>
      <point x="1292" y="213"/>
      <point x="1255" y="213" type="curve" smooth="yes"/>
      <point x="1190" y="213"/>
      <point x="1165" y="256"/>
      <point x="1165" y="344" type="curve" smooth="yes"/>
      <point x="1165" y="899" type="line"/>
      <point x="1366" y="899" type="line"/>
      <point x="1366" y="1120" type="line"/>
      <point x="1165" y="1120" type="line"/>
      <point x="1165" y="1380" type="line"/>
      <point x="1096" y="1446"/>
      <point x="975" y="1567"/>
      <point x="750" y="1567" type="curve" smooth="yes"/>
      <point x="541" y="1567"/>
      <point x="393" y="1446"/>
      <point x="393" y="1257" type="curve" smooth="yes"/>
      <point x="393" y="1159"/>
      <point x="436" y="1087"/>
      <point x="481" y="1053" type="curve"/>
      <point x="698" y="1053" type="line"/>
      <point x="641" y="1085"/>
      <point x="618" y="1141"/>
      <point x="618" y="1198" type="curve" smooth="yes"/>
      <point x="618" y="1282"/>
      <point x="672" y="1341"/>
      <point x="758" y="1341" type="curve" smooth="yes"/>
      <point x="825" y="1341"/>
      <point x="868" y="1311"/>
      <point x="899" y="1284" type="curve"/>
      <point x="899" y="1102" type="line"/>
      <point x="788" y="1042" type="line"/>
      <point x="788" y="899" type="line"/>
      <point x="899" y="899" type="line"/>
      <point x="899" y="334" type="line" smooth="yes"/>
      <point x="899" y="94"/>
      <point x="979" y="-20"/>
    </contour>
    <contour>
      <point x="352" y="-20" type="curve" smooth="yes"/>
      <point x="578" y="-20"/>
      <point x="711" y="100"/>
      <point x="711" y="328" type="curve" smooth="yes"/>
      <point x="711" y="500"/>
      <point x="616" y="592"/>
      <point x="481" y="672" type="curve" smooth="yes"/>
      <point x="340" y="756"/>
      <point x="315" y="778"/>
      <point x="315" y="836" type="curve" smooth="yes"/>
      <point x="315" y="891"/>
      <point x="350" y="924"/>
      <point x="416" y="924" type="curve" smooth="yes"/>
      <point x="489" y="924"/>
      <point x="561" y="891"/>
      <point x="625" y="848" type="curve"/>
      <point x="698" y="1053" type="line"/>
      <point x="604" y="1110"/>
      <point x="510" y="1141"/>
      <point x="401" y="1141" type="curve" smooth="yes"/>
      <point x="188" y="1141"/>
      <point x="57" y="1020"/>
      <point x="57" y="823" type="curve" smooth="yes"/>
      <point x="57" y="662"/>
      <point x="137" y="557"/>
      <point x="281" y="481" type="curve" smooth="yes"/>
      <point x="420" y="408"/>
      <point x="444" y="369"/>
      <point x="444" y="313" type="curve" smooth="yes"/>
      <point x="444" y="246"/>
      <point x="403" y="211"/>
      <point x="328" y="211" type="curve" smooth="yes"/>
      <point x="231" y="211"/>
      <point x="131" y="252"/>
      <point x="59" y="301" type="curve"/>
      <point x="59" y="43" type="line"/>
      <point x="145" y="0"/>
      <point x="244" y="-20"/>
    </contour>
  </outline>
</glyph>
<glyph name="a.sc" format="2">
  <advance width="971"/>
  <anchor x="485" y="0" name="bottom"/>
  <anchor x="481" y="1192" name="top"/>
  <anchor x="930" y="1192" name="topright"/>
  <outline>
    <contour>
      <point x="0" y="0" type="line"/>
      <point x="305" y="0" type="line"/>
      <point x="356" y="248" type="line"/>
      <point x="614" y="248" type="line"/>
      <point x="668" y="0" type="line"/>
      <point x="971" y="0" type="line"/>
      <point x="674" y="1196" type="line"/>
      <point x="295" y="1196" type="line"/>
    </contour>
    <contour>
      <point x="580" y="487" type="line"/>
      <point x="393" y="487" type="line"/>
      <point x="438" y="698" type="line" smooth="yes"/>
      <point x="461" y="805"/>
      <point x="477" y="913"/>
      <point x="487" y="993" type="curve"/>
      <point x="496" y="913"/>
      <point x="512" y="809"/>
      <point x="535" y="700" type="curve" smooth="yes"/>
    </contour>
  </outline>
</glyph>
<glyph name="braceleft.sc" format="2">
  <advance width="569"/>
  <outline>
    <contour>
      <point x="39" y="573" type="curve"/>
      <point x="39" y="352" type="line"/>
      <point x="115" y="352"/>
      <point x="195" y="309"/>
      <point x="195" y="209" type="curve" smooth="yes"/>
      <point x="195" y="-2" type="line" smooth="yes"/>
      <point x="195" y="-197"/>
      <point x="256" y="-279"/>
      <point x="539" y="-279" type="curve"/>
      <point x="539" y="-70" type="line"/>
      <point x="498" y="-68"/>
      <point x="424" y="-59"/>
      <point x="424" y="25" type="curve" smooth="yes"/>
      <point x="424" y="256" type="line" smooth="yes"/>
      <point x="424" y="383"/>
      <point x="369" y="438"/>
      <point x="268" y="459" type="curve"/>
      <point x="268" y="467" type="line"/>
      <point x="365" y="485"/>
      <point x="424" y="543"/>
      <point x="424" y="678" type="curve" smooth="yes"/>
      <point x="424" y="901" type="line" smooth="yes"/>
      <point x="424" y="989"/>
      <point x="496" y="995"/>
      <point x="539" y="999" type="curve"/>
      <point x="539" y="1208" type="line"/>
      <point x="250" y="1206"/>
      <point x="195" y="1118"/>
      <point x="195" y="932" type="curve" smooth="yes"/>
      <point x="195" y="715" type="line" smooth="yes"/>
      <point x="195" y="612"/>
      <point x="117" y="573"/>
    </contour>
  </outline>
</glyph>
<glyph name="carondot" format="2">
  <outline>
    <contour>
      <point x="-123" y="1227" type="curve"/>
      <point x="123" y="1227" type="line"/>
      <point x="166" y="1313"/>
      <point x="256" y="1448"/>
      <point x="315" y="1528" type="curve"/>
      <point x="315" y="1554" type="line"/>
      <point x="156" y="1554" type="line"/>
      <point x="104" y="1507"/>
      <point x="61" y="1460"/>
      <point x="0" y="1386" type="curve"/>
      <point x="-57" y="1456"/>
      <point x="-111" y="1513"/>
      <point x="-154" y="1554" type="curve"/>
      <point x="-315" y="1554" type="line"/>
      <point x="-315" y="1528" type="line"/>
      <point x="-256" y="1450"/>
      <point x="-162" y="1305"/>
    </contour>
    <contour>
      <point x="0" y="1567" type="curve" smooth="yes"/>
      <point x="78" y="1567"/>
      <point x="115" y="1610"/>
      <point x="115" y="1690" type="curve" smooth="yes"/>
      <point x="115" y="1772"/>
      <point x="82" y="1815"/>
      <point x="0" y="1815" type="curve" smooth="yes"/>
      <point x="-82" y="1815"/>
      <point x="-119" y="1772"/>
      <point x="-119" y="1690" type="curve" smooth="yes"/>
      <point x="-119" y="1610"/>
      <point x="-78" y="1567"/>
    </contour>
  </outline>
</glyph>
<glyph name="cyrillicbighookUC" format="2">
  <advance width="463"/>
  <outline>
    <contour>
      <point x="180" y="-453" type="curve" smooth="yes"/>
      <point x="365" y="-453"/>
      <point x="481" y="-332"/>
      <point x="481" y="-90" type="curve" smooth="yes"/>
      <point x="481" y="244" type="line"/>
      <point x="193" y="244" type="line"/>
      <point x="193" y="0" type="line"/>
      <point x="211" y="0" type="line"/>
      <point x="211" y="-86" type="line" smooth="yes"/>
      <point x="211" y="-184"/>
      <point x="182" y="-225"/>
      <point x="102" y="-225" type="curve" smooth="yes"/>
      <point x="72" y="-225"/>
      <point x="43" y="-219"/>
      <point x="10" y="-207" type="curve"/>
      <point x="10" y="-432" type="line"/>
      <point x="49" y="-446"/>
      <point x="106" y="-453"/>
    </contour>
  </outline>
</glyph>
<glyph name="dieresiscomb.sc" format="2">
  <advance width="930"/>
  <anchor x="465" y="1192" name="_top"/>
  <anchor x="469" y="1630" name="top"/>
  <outline>
    <contour>
      <point x="156" y="1483" type="curve"/>
      <point x="156" y="1382"/>
      <point x="213" y="1335"/>
      <point x="287" y="1335" type="curve" smooth="yes"/>
      <point x="356" y="1335"/>
      <point x="418" y="1382"/>
      <point x="418" y="1483" type="curve" smooth="yes"/>
      <point x="418" y="1583"/>
      <point x="356" y="1630"/>
      <point x="287" y="1630" type="curve" smooth="yes"/>
      <point x="213" y="1630"/>
      <point x="156" y="1585"/>
    </contour>
    <contour>
      <point x="510" y="1483" type="curve"/>
      <point x="510" y="1382"/>
      <point x="567" y="1335"/>
      <point x="641" y="1335" type="curve" smooth="yes"/>
      <point x="711" y="1335"/>
      <point x="772" y="1382"/>
      <point x="772" y="1483" type="curve" smooth="yes"/>
      <point x="772" y="1583"/>
      <point x="711" y="1630"/>
      <point x="641" y="1630" type="curve" smooth="yes"/>
      <point x="567" y="1630"/>
      <point x="510" y="1585"/>
    </contour>
  </outline>
</glyph>
<glyph name="dotaccentcomb.sc" format="2">
  <advance width="522"/>
  <anchor x="262" y="1192" name="_top"/>
  <anchor x="266" y="1636" name="top"/>
  <outline>
    <contour>
      <point x="262" y="1331" type="curve" smooth="yes"/>
      <point x="346" y="1331"/>
      <point x="422" y="1366"/>
      <point x="422" y="1483" type="curve" smooth="yes"/>
      <point x="422" y="1604"/>
      <point x="346" y="1636"/>
      <point x="262" y="1636" type="curve" smooth="yes"/>
      <point x="174" y="1636"/>
      <point x="102" y="1604"/>
      <point x="102" y="1483" type="curve"/>
      <point x="102" y="1364"/>
      <point x="174" y="1331"/>
    </contour>
  </outline>
</glyph>
<glyph name="nine.osf" format="2">
  <advance width="961"/>
  <outline>
    <contour>
      <point x="883" y="510" type="curve" smooth="yes"/>
      <point x="883" y="930"/>
      <point x="735" y="1143"/>
      <point x="467" y="1143" type="curve" smooth="yes"/>
      <point x="209" y="1143"/>
      <point x="68" y="958"/>
      <point x="68" y="637" type="curve" smooth="yes"/>
      <point x="68" y="356"/>
      <point x="178" y="168"/>
      <point x="387" y="168" type="curve" smooth="yes"/>
      <point x="492" y="168"/>
      <point x="569" y="225"/>
      <point x="616" y="336" type="curve"/>
      <point x="627" y="336" type="line"/>
      <point x="616" y="51"/>
      <point x="522" y="-106"/>
      <point x="303" y="-106" type="curve" smooth="yes"/>
      <point x="244" y="-106"/>
      <point x="186" y="-100"/>
      <point x="137" y="-86" type="curve"/>
      <point x="137" y="-322" type="line"/>
      <point x="193" y="-334"/>
      <point x="262" y="-342"/>
      <point x="326" y="-342" type="curve" smooth="yes"/>
      <point x="739" y="-342"/>
      <point x="883" y="12"/>
    </contour>
    <contour>
      <point x="469" y="901" type="curve" smooth="yes"/>
      <point x="582" y="901"/>
      <point x="604" y="729"/>
      <point x="604" y="610" type="curve" smooth="yes"/>
      <point x="604" y="518"/>
      <point x="565" y="401"/>
      <point x="467" y="401" type="curve" smooth="yes"/>
      <point x="383" y="401"/>
      <point x="340" y="483"/>
      <point x="340" y="643" type="curve" smooth="yes"/>
      <point x="340" y="829"/>
      <point x="393" y="901"/>
    </contour>
  </outline>
</glyph>
<glyph name="seven.osf" format="2">
  <advance width="874"/>
  <outline>
    <contour>
      <point x="147" y="-330" type="line"/>
      <point x="438" y="-330" type="line"/>
      <point x="821" y="928" type="line"/>
      <point x="821" y="1120" type="line"/>
      <point x="53" y="1120" type="line"/>
      <point x="53" y="877" type="line"/>
      <point x="543" y="877" type="line"/>
    </contour>
  </outline>
</glyph>
<glyph name="six.lf" format="2">
  <advance width="975"/>
  <outline>
    <contour>
      <point x="82" y="621" type="curve" smooth="yes"/>
      <point x="82" y="215"/>
      <point x="238" y="-20"/>
      <point x="502" y="-20" type="curve" smooth="yes"/>
      <point x="756" y="-20"/>
      <point x="897" y="184"/>
      <point x="897" y="485" type="curve" smooth="yes"/>
      <point x="897" y="768"/>
      <point x="782" y="956"/>
      <point x="578" y="956" type="curve" smooth="yes"/>
      <point x="471" y="956"/>
      <point x="393" y="897"/>
      <point x="348" y="788" type="curve"/>
      <point x="340" y="788" type="line"/>
      <point x="350" y="1104"/>
      <point x="455" y="1249"/>
      <point x="659" y="1249" type="curve" smooth="yes"/>
      <point x="719" y="1249"/>
      <point x="774" y="1241"/>
      <point x="825" y="1229" type="curve"/>
      <point x="825" y="1464" type="line"/>
      <point x="766" y="1477"/>
      <point x="702" y="1483"/>
      <point x="637" y="1483" type="curve" smooth="yes"/>
      <point x="205" y="1483"/>
      <point x="82" y="1100"/>
    </contour>
    <contour>
      <point x="496" y="219" type="curve" smooth="yes"/>
      <point x="403" y="219"/>
      <point x="360" y="369"/>
      <point x="360" y="518" type="curve" smooth="yes"/>
      <point x="360" y="629"/>
      <point x="412" y="721"/>
      <point x="498" y="721" type="curve" smooth="yes"/>
      <point x="582" y="721"/>
      <point x="623" y="639"/>
      <point x="623" y="479" type="curve" smooth="yes"/>
      <point x="623" y="303"/>
      <point x="573" y="219"/>
    </contour>
  </outline>
</glyph>
<glyph name="tildeacute" format="2">
  <outline>
    <contour>
      <point x="-297" y="1239" type="curve"/>
      <point x="-184" y="1239" type="line"/>
      <point x="-170" y="1305"/>
      <point x="-152" y="1333"/>
      <point x="-113" y="1333" type="curve" smooth="yes"/>
      <point x="-57" y="1333"/>
      <point x="8" y="1239"/>
      <point x="113" y="1239" type="curve" smooth="yes"/>
      <point x="233" y="1239"/>
      <point x="283" y="1337"/>
      <point x="295" y="1466" type="curve"/>
      <point x="182" y="1466" type="line"/>
      <point x="174" y="1407"/>
      <point x="152" y="1374"/>
      <point x="115" y="1374" type="curve" smooth="yes"/>
      <point x="53" y="1374"/>
      <point x="-2" y="1468"/>
      <point x="-117" y="1468" type="curve" smooth="yes"/>
      <point x="-233" y="1468"/>
      <point x="-287" y="1368"/>
    </contour>
    <contour>
      <point x="-137" y="1518" type="line"/>
      <point x="27" y="1518" type="line"/>
      <point x="100" y="1591"/>
      <point x="195" y="1698"/>
      <point x="252" y="1780" type="curve"/>
      <point x="252" y="1800" type="line"/>
      <point x="-18" y="1800" type="line"/>
      <point x="-51" y="1712"/>
      <point x="-90" y="1624"/>
      <point x="-137" y="1546" type="curve"/>
    </contour>
  </outline>
</glyph>
<glyph name="uni030003040308" format="2">
  <anchor x="369" y="1120" name="_top"/>
  <anchor x="373" y="1997" name="top"/>
  <outline>
    <contour>
      <point x="315" y="1759" type="curve"/>
      <point x="475" y="1759" type="line"/>
      <point x="475" y="1782" type="line"/>
      <point x="428" y="1847"/>
      <point x="387" y="1921"/>
      <point x="356" y="1997" type="curve"/>
      <point x="106" y="1997" type="line"/>
      <point x="106" y="1980" type="line"/>
      <point x="160" y="1915"/>
      <point x="250" y="1812"/>
    </contour>
    <contour>
      <point x="98" y="1534" type="line"/>
      <point x="637" y="1534" type="line"/>
      <point x="637" y="1706" type="line"/>
      <point x="98" y="1706" type="line"/>
    </contour>
    <contour>
      <point x="211" y="1225" type="curve" smooth="yes"/>
      <point x="279" y="1225"/>
      <point x="322" y="1268"/>
      <point x="322" y="1348" type="curve" smooth="yes"/>
      <point x="322" y="1423"/>
      <point x="279" y="1466"/>
      <point x="211" y="1466" type="curve" smooth="yes"/>
      <point x="143" y="1466"/>
      <point x="100" y="1425"/>
      <point x="100" y="1348" type="curve" smooth="yes"/>
      <point x="100" y="1268"/>
      <point x="143" y="1225"/>
    </contour>
    <contour>
      <point x="524" y="1225" type="curve" smooth="yes"/>
      <point x="594" y="1225"/>
      <point x="635" y="1268"/>
      <point x="635" y="1348" type="curve" smooth="yes"/>
      <point x="635" y="1423"/>
      <point x="594" y="1466"/>
      <point x="524" y="1466" type="curve" smooth="yes"/>
      <point x="459" y="1466"/>
      <point x="416" y="1425"/>
      <point x="416" y="1348" type="curve" smooth="yes"/>
      <point x="416" y="1268"/>
      <point x="459" y="1225"/>
    </contour>
  </outline>
</glyph>
<glyph name="w.sc" format="2">
  <advance width="1384"/>
  <anchor x="692" y="0" name="bottom"/>
  <anchor x="692" y="1192" name="top"/>
  <anchor x="1343" y="1192" name="topright"/>
  <outline>
    <contour>
      <point x="809" y="0" type="line"/>
      <point x="1141" y="0" type="line"/>
      <point x="1368" y="1192" type="line"/>
      <point x="1098" y="1192" type="line"/>
      <point x="1001" y="586" type="line" smooth="yes"/>
      <point x="987" y="496"/>
      <point x="965" y="338"/>
      <point x="961" y="260" type="curve"/>
      <point x="946" y="383"/>
      <point x="930" y="512"/>
      <point x="915" y="598" type="curve" smooth="yes"/>
      <point x="821" y="1192" type="line"/>
      <point x="565" y="1192" type="line"/>
      <point x="465" y="594" type="line" smooth="yes"/>
      <point x="453" y="518"/>
      <point x="434" y="387"/>
      <point x="424" y="260" type="curve"/>
      <point x="412" y="393"/>
      <point x="401" y="496"/>
      <point x="383" y="604" type="curve" smooth="yes"/>
      <point x="285" y="1192" type="line"/>
      <point x="16" y="1192" type="line"/>
      <point x="244" y="0" type="line"/>
      <point x="575" y="0" type="line"/>
      <point x="655" y="481" type="line" smooth="yes"/>
      <point x="674" y="590"/>
      <point x="688" y="700"/>
      <point x="692" y="844" type="curve"/>
      <point x="700" y="700"/>
      <point x="713" y="590"/>
      <point x="731" y="479" type="curve" smooth="yes"/>
    </contour>
  </outline>
</glyph>
<glyph name="zero.osf" format="2">
  <advance width="967"/>
  <outline>
    <contour>
      <point x="479" y="-20" type="curve" smooth="yes"/>
      <point x="748" y="-20"/>
      <point x="889" y="190"/>
      <point x="889" y="563" type="curve" smooth="yes"/>
      <point x="889" y="893"/>
      <point x="766" y="1143"/>
      <point x="485" y="1143" type="curve" smooth="yes"/>
      <point x="223" y="1143"/>
      <point x="76" y="934"/>
      <point x="76" y="563" type="curve" smooth="yes"/>
      <point x="76" y="188"/>
      <point x="217" y="-20"/>
    </contour>
    <contour>
      <point x="483" y="219" type="curve" smooth="yes"/>
      <point x="391" y="219"/>
      <point x="352" y="332"/>
      <point x="352" y="563" type="curve" smooth="yes"/>
      <point x="352" y="799"/>
      <point x="391" y="905"/>
      <point x="481" y="905" type="curve" smooth="yes"/>
      <point x="573" y="905"/>
      <point x="612" y="805"/>
      <point x="612" y="563" type="curve" smooth="yes"/>
      <point x="612" y="328"/>
      <point x="575" y="219"/>
    </contour>
  </outline>
</glyph>
